<mxfile host="app.diagrams.net" modified="2023-11-24T14:06:08.288Z" agent="Mozilla/5.0 (Windows NT 10.0; Win64; x64) AppleWebKit/537.36 (KHTML, like Gecko) Chrome/119.0.0.0 Safari/537.36" etag="X6LRRqW9XT8GptCY6trh" version="22.1.3" type="device" pages="13">
  <diagram name="1-UserRegistartion" id="Fz3Y9RArSnoA0cIBPUR5">
    <mxGraphModel dx="1114" dy="610" grid="1" gridSize="10" guides="1" tooltips="1" connect="1" arrows="1" fold="1" page="1" pageScale="1" pageWidth="827" pageHeight="1169" math="0" shadow="0">
      <root>
        <mxCell id="0" />
        <mxCell id="1" parent="0" />
        <mxCell id="6sPfocSNQYSiw-mJiT_H-10" value="User Interface" style="shape=umlLifeline;perimeter=lifelinePerimeter;whiteSpace=wrap;html=1;container=1;dropTarget=0;collapsible=0;recursiveResize=0;outlineConnect=0;portConstraint=eastwest;newEdgeStyle={&quot;curved&quot;:0,&quot;rounded&quot;:0};fillColor=#a0522d;strokeColor=#6D1F00;fontColor=#ffffff;" parent="1" vertex="1">
          <mxGeometry x="280" y="40" width="100" height="400" as="geometry" />
        </mxCell>
        <mxCell id="8F8rogP1rOZZYeFJBkCE-1" value="" style="html=1;points=[[0,0,0,0,5],[0,1,0,0,-5],[1,0,0,0,5],[1,1,0,0,-5]];perimeter=orthogonalPerimeter;outlineConnect=0;targetShapes=umlLifeline;portConstraint=eastwest;newEdgeStyle={&quot;curved&quot;:0,&quot;rounded&quot;:0};fillColor=#d5e8d4;strokeColor=#82b366;" parent="6sPfocSNQYSiw-mJiT_H-10" vertex="1">
          <mxGeometry x="50" y="210" width="10" height="150" as="geometry" />
        </mxCell>
        <mxCell id="dv99KSgT25rQU448zv8p-1" value="" style="html=1;points=[[0,0,0,0,5],[0,1,0,0,-5],[1,0,0,0,5],[1,1,0,0,-5]];perimeter=orthogonalPerimeter;outlineConnect=0;targetShapes=umlLifeline;portConstraint=eastwest;newEdgeStyle={&quot;curved&quot;:0,&quot;rounded&quot;:0};fillColor=#d5e8d4;strokeColor=#82b366;" vertex="1" parent="6sPfocSNQYSiw-mJiT_H-10">
          <mxGeometry x="50" y="68" width="10" height="32" as="geometry" />
        </mxCell>
        <mxCell id="dv99KSgT25rQU448zv8p-2" value="" style="html=1;points=[[0,0,0,0,5],[0,1,0,0,-5],[1,0,0,0,5],[1,1,0,0,-5]];perimeter=orthogonalPerimeter;outlineConnect=0;targetShapes=umlLifeline;portConstraint=eastwest;newEdgeStyle={&quot;curved&quot;:0,&quot;rounded&quot;:0};fillColor=#d5e8d4;strokeColor=#82b366;" vertex="1" parent="6sPfocSNQYSiw-mJiT_H-10">
          <mxGeometry x="50" y="139" width="10" height="35" as="geometry" />
        </mxCell>
        <mxCell id="6sPfocSNQYSiw-mJiT_H-11" value="Database" style="shape=umlLifeline;perimeter=lifelinePerimeter;whiteSpace=wrap;html=1;container=1;dropTarget=0;collapsible=0;recursiveResize=0;outlineConnect=0;portConstraint=eastwest;newEdgeStyle={&quot;curved&quot;:0,&quot;rounded&quot;:0};fillColor=#a0522d;strokeColor=#6D1F00;fontColor=#ffffff;" parent="1" vertex="1">
          <mxGeometry x="560" y="40" width="100" height="400" as="geometry" />
        </mxCell>
        <mxCell id="8F8rogP1rOZZYeFJBkCE-2" value="" style="html=1;points=[[0,0,0,0,5],[0,1,0,0,-5],[1,0,0,0,5],[1,1,0,0,-5]];perimeter=orthogonalPerimeter;outlineConnect=0;targetShapes=umlLifeline;portConstraint=eastwest;newEdgeStyle={&quot;curved&quot;:0,&quot;rounded&quot;:0};fillColor=#d5e8d4;strokeColor=#82b366;" parent="6sPfocSNQYSiw-mJiT_H-11" vertex="1">
          <mxGeometry x="50" y="270" width="10" height="50" as="geometry" />
        </mxCell>
        <mxCell id="6sPfocSNQYSiw-mJiT_H-12" value="&lt;br&gt;&lt;br&gt;&lt;br&gt;&lt;br&gt;User" style="shape=umlLifeline;perimeter=lifelinePerimeter;whiteSpace=wrap;html=1;container=1;dropTarget=0;collapsible=0;recursiveResize=0;outlineConnect=0;portConstraint=eastwest;newEdgeStyle={&quot;curved&quot;:0,&quot;rounded&quot;:0};participant=umlActor;fillColor=#a0522d;strokeColor=#6D1F00;fontColor=#000000;" parent="1" vertex="1">
          <mxGeometry x="150" y="30" width="20" height="410" as="geometry" />
        </mxCell>
        <mxCell id="6sPfocSNQYSiw-mJiT_H-18" value="Opens the application" style="html=1;verticalAlign=bottom;endArrow=block;curved=0;rounded=0;align=center;labelPosition=left;verticalLabelPosition=top;textDirection=ltr;" parent="1" target="6sPfocSNQYSiw-mJiT_H-10" edge="1">
          <mxGeometry width="80" relative="1" as="geometry">
            <mxPoint x="160" y="110" as="sourcePoint" />
            <mxPoint x="240" y="110" as="targetPoint" />
          </mxGeometry>
        </mxCell>
        <mxCell id="6sPfocSNQYSiw-mJiT_H-19" value="Display Home Screen" style="html=1;verticalAlign=bottom;endArrow=open;curved=0;rounded=0;entryX=0.5;entryY=0.24;entryDx=0;entryDy=0;entryPerimeter=0;align=center;labelPosition=left;verticalLabelPosition=top;textDirection=ltr;dashed=1;endFill=0;" parent="1" source="6sPfocSNQYSiw-mJiT_H-10" edge="1">
          <mxGeometry width="80" relative="1" as="geometry">
            <mxPoint x="510" y="142" as="sourcePoint" />
            <mxPoint x="160" y="140" as="targetPoint" />
          </mxGeometry>
        </mxCell>
        <mxCell id="6sPfocSNQYSiw-mJiT_H-20" value="Naviagte to &quot;Register&quot;" style="html=1;verticalAlign=bottom;endArrow=block;curved=0;rounded=0;align=center;labelPosition=left;verticalLabelPosition=top;textDirection=ltr;" parent="1" target="6sPfocSNQYSiw-mJiT_H-10" edge="1">
          <mxGeometry width="80" relative="1" as="geometry">
            <mxPoint x="160" y="180" as="sourcePoint" />
            <mxPoint x="510" y="182" as="targetPoint" />
          </mxGeometry>
        </mxCell>
        <mxCell id="6sPfocSNQYSiw-mJiT_H-21" value="Prompts for registration info" style="html=1;verticalAlign=bottom;endArrow=open;curved=0;rounded=0;align=center;labelPosition=left;verticalLabelPosition=top;textDirection=ltr;dashed=1;endFill=0;" parent="1" edge="1">
          <mxGeometry width="80" relative="1" as="geometry">
            <mxPoint x="330" y="214" as="sourcePoint" />
            <mxPoint x="160" y="214" as="targetPoint" />
          </mxGeometry>
        </mxCell>
        <mxCell id="6sPfocSNQYSiw-mJiT_H-22" value="Enter Information" style="html=1;verticalAlign=bottom;endArrow=block;curved=0;rounded=0;align=center;labelPosition=left;verticalLabelPosition=top;textDirection=ltr;" parent="1" edge="1">
          <mxGeometry width="80" relative="1" as="geometry">
            <mxPoint x="160" y="250" as="sourcePoint" />
            <mxPoint x="330" y="250" as="targetPoint" />
          </mxGeometry>
        </mxCell>
        <mxCell id="6sPfocSNQYSiw-mJiT_H-23" value="Sent Registration data" style="html=1;verticalAlign=bottom;endArrow=block;curved=0;rounded=0;align=center;labelPosition=left;verticalLabelPosition=top;textDirection=ltr;" parent="1" edge="1">
          <mxGeometry x="1" y="-77" width="80" relative="1" as="geometry">
            <mxPoint x="340" y="280" as="sourcePoint" />
            <mxPoint x="469.5" y="280" as="targetPoint" />
            <mxPoint x="70" y="-47" as="offset" />
          </mxGeometry>
        </mxCell>
        <mxCell id="6sPfocSNQYSiw-mJiT_H-32" value="User Account Created" style="html=1;verticalAlign=bottom;endArrow=open;curved=0;rounded=0;align=center;labelPosition=left;verticalLabelPosition=top;textDirection=ltr;dashed=1;endFill=0;" parent="1" edge="1">
          <mxGeometry width="80" relative="1" as="geometry">
            <mxPoint x="610" y="359" as="sourcePoint" />
            <mxPoint x="480" y="360" as="targetPoint" />
          </mxGeometry>
        </mxCell>
        <mxCell id="6sPfocSNQYSiw-mJiT_H-33" value="&amp;nbsp;Display &quot;Registration &lt;br&gt;Successful&quot;&lt;br&gt;Message" style="html=1;verticalAlign=bottom;endArrow=open;curved=0;rounded=0;align=center;labelPosition=left;verticalLabelPosition=top;textDirection=ltr;dashed=1;endFill=0;" parent="1" source="zyxUta6fR6zcygJMn0z5-1" edge="1">
          <mxGeometry x="0.4184" y="-1" width="80" relative="1" as="geometry">
            <mxPoint x="329.5" y="401" as="sourcePoint" />
            <mxPoint x="160" y="401" as="targetPoint" />
            <mxPoint as="offset" />
          </mxGeometry>
        </mxCell>
        <mxCell id="zyxUta6fR6zcygJMn0z5-1" value="User&amp;nbsp;&lt;br&gt;Authentication" style="shape=umlLifeline;perimeter=lifelinePerimeter;whiteSpace=wrap;html=1;container=1;dropTarget=0;collapsible=0;recursiveResize=0;outlineConnect=0;portConstraint=eastwest;newEdgeStyle={&quot;curved&quot;:0,&quot;rounded&quot;:0};fillColor=#a0522d;strokeColor=#6D1F00;fontColor=#ffffff;" parent="1" vertex="1">
          <mxGeometry x="420" y="40" width="100" height="400" as="geometry" />
        </mxCell>
        <mxCell id="EMKddCkOZEumQ89yFmyu-1" value="" style="html=1;points=[[0,0,0,0,5],[0,1,0,0,-5],[1,0,0,0,5],[1,1,0,0,-5]];perimeter=orthogonalPerimeter;outlineConnect=0;targetShapes=umlLifeline;portConstraint=eastwest;newEdgeStyle={&quot;curved&quot;:0,&quot;rounded&quot;:0};fillColor=#d5e8d4;strokeColor=#82b366;" parent="zyxUta6fR6zcygJMn0z5-1" vertex="1">
          <mxGeometry x="50" y="236" width="10" height="124" as="geometry" />
        </mxCell>
        <mxCell id="21WQZ-idyiJm4bKPjxc--1" value="Verifies credentials" style="html=1;verticalAlign=bottom;endArrow=block;curved=0;rounded=0;align=center;labelPosition=left;verticalLabelPosition=top;textDirection=ltr;" parent="1" target="6sPfocSNQYSiw-mJiT_H-11" edge="1">
          <mxGeometry x="-1" y="85" width="80" relative="1" as="geometry">
            <mxPoint x="480" y="310" as="sourcePoint" />
            <mxPoint x="590" y="310" as="targetPoint" />
            <mxPoint x="-80" y="55" as="offset" />
          </mxGeometry>
        </mxCell>
      </root>
    </mxGraphModel>
  </diagram>
  <diagram id="lPLIm8WbgtJIolYUbTPu" name="2-UserLogin">
    <mxGraphModel dx="1114" dy="610" grid="1" gridSize="10" guides="1" tooltips="1" connect="1" arrows="1" fold="1" page="1" pageScale="1" pageWidth="850" pageHeight="1100" math="0" shadow="0">
      <root>
        <mxCell id="0" />
        <mxCell id="1" parent="0" />
        <mxCell id="s5nf9SFniMlntacgUoqj-1" value="User Interface" style="shape=umlLifeline;perimeter=lifelinePerimeter;whiteSpace=wrap;html=1;container=1;dropTarget=0;collapsible=0;recursiveResize=0;outlineConnect=0;portConstraint=eastwest;newEdgeStyle={&quot;curved&quot;:0,&quot;rounded&quot;:0};fillColor=#a0522d;strokeColor=#6D1F00;fontColor=#ffffff;" parent="1" vertex="1">
          <mxGeometry x="280" y="40" width="100" height="560" as="geometry" />
        </mxCell>
        <mxCell id="Ak3YSsIJOuMw2iZsONbj-1" value="" style="html=1;points=[[0,0,0,0,5],[0,1,0,0,-5],[1,0,0,0,5],[1,1,0,0,-5]];perimeter=orthogonalPerimeter;outlineConnect=0;targetShapes=umlLifeline;portConstraint=eastwest;newEdgeStyle={&quot;curved&quot;:0,&quot;rounded&quot;:0};fillColor=#d5e8d4;strokeColor=#82b366;" vertex="1" parent="s5nf9SFniMlntacgUoqj-1">
          <mxGeometry x="50" y="69" width="10" height="32" as="geometry" />
        </mxCell>
        <mxCell id="Ak3YSsIJOuMw2iZsONbj-2" value="" style="html=1;points=[[0,0,0,0,5],[0,1,0,0,-5],[1,0,0,0,5],[1,1,0,0,-5]];perimeter=orthogonalPerimeter;outlineConnect=0;targetShapes=umlLifeline;portConstraint=eastwest;newEdgeStyle={&quot;curved&quot;:0,&quot;rounded&quot;:0};fillColor=#d5e8d4;strokeColor=#82b366;" vertex="1" parent="s5nf9SFniMlntacgUoqj-1">
          <mxGeometry x="50" y="139" width="10" height="35" as="geometry" />
        </mxCell>
        <mxCell id="Ak3YSsIJOuMw2iZsONbj-3" value="" style="html=1;points=[[0,0,0,0,5],[0,1,0,0,-5],[1,0,0,0,5],[1,1,0,0,-5]];perimeter=orthogonalPerimeter;outlineConnect=0;targetShapes=umlLifeline;portConstraint=eastwest;newEdgeStyle={&quot;curved&quot;:0,&quot;rounded&quot;:0};fillColor=#d5e8d4;strokeColor=#82b366;" vertex="1" parent="s5nf9SFniMlntacgUoqj-1">
          <mxGeometry x="49" y="209" width="10" height="271" as="geometry" />
        </mxCell>
        <mxCell id="s5nf9SFniMlntacgUoqj-2" value="User&amp;nbsp;&lt;br&gt;Authentication" style="shape=umlLifeline;perimeter=lifelinePerimeter;whiteSpace=wrap;html=1;container=1;dropTarget=0;collapsible=0;recursiveResize=0;outlineConnect=0;portConstraint=eastwest;newEdgeStyle={&quot;curved&quot;:0,&quot;rounded&quot;:0};fillColor=#a0522d;strokeColor=#6D1F00;fontColor=#ffffff;" parent="1" vertex="1">
          <mxGeometry x="450" y="35" width="100" height="565" as="geometry" />
        </mxCell>
        <mxCell id="s5nf9SFniMlntacgUoqj-42" value="" style="html=1;points=[[0,0,0,0,5],[0,1,0,0,-5],[1,0,0,0,5],[1,1,0,0,-5]];perimeter=orthogonalPerimeter;outlineConnect=0;targetShapes=umlLifeline;portConstraint=eastwest;newEdgeStyle={&quot;curved&quot;:0,&quot;rounded&quot;:0};fillColor=#d5e8d4;strokeColor=#82b366;" parent="s5nf9SFniMlntacgUoqj-2" vertex="1">
          <mxGeometry x="50" y="240" width="10" height="245" as="geometry" />
        </mxCell>
        <mxCell id="s5nf9SFniMlntacgUoqj-3" value="&lt;br&gt;&lt;br&gt;&lt;br&gt;&lt;br&gt;User" style="shape=umlLifeline;perimeter=lifelinePerimeter;whiteSpace=wrap;html=1;container=1;dropTarget=0;collapsible=0;recursiveResize=0;outlineConnect=0;portConstraint=eastwest;newEdgeStyle={&quot;curved&quot;:0,&quot;rounded&quot;:0};participant=umlActor;fillColor=#a0522d;strokeColor=#6D1F00;fontColor=#000000;" parent="1" vertex="1">
          <mxGeometry x="150" y="30" width="20" height="570" as="geometry" />
        </mxCell>
        <mxCell id="s5nf9SFniMlntacgUoqj-4" value="Database" style="shape=umlLifeline;perimeter=lifelinePerimeter;whiteSpace=wrap;html=1;container=1;dropTarget=0;collapsible=0;recursiveResize=0;outlineConnect=0;portConstraint=eastwest;newEdgeStyle={&quot;curved&quot;:0,&quot;rounded&quot;:0};fillColor=#a0522d;strokeColor=#6D1F00;fontColor=#ffffff;" parent="1" vertex="1">
          <mxGeometry x="620" y="40" width="100" height="560" as="geometry" />
        </mxCell>
        <mxCell id="s5nf9SFniMlntacgUoqj-43" value="" style="html=1;points=[[0,0,0,0,5],[0,1,0,0,-5],[1,0,0,0,5],[1,1,0,0,-5]];perimeter=orthogonalPerimeter;outlineConnect=0;targetShapes=umlLifeline;portConstraint=eastwest;newEdgeStyle={&quot;curved&quot;:0,&quot;rounded&quot;:0};fillColor=#d5e8d4;strokeColor=#82b366;" parent="s5nf9SFniMlntacgUoqj-4" vertex="1">
          <mxGeometry x="49" y="267" width="10" height="173" as="geometry" />
        </mxCell>
        <mxCell id="s5nf9SFniMlntacgUoqj-30" value="Display &quot;Incorrect information&quot;&lt;br&gt;Message" style="html=1;verticalAlign=bottom;endArrow=open;curved=0;rounded=0;align=center;labelPosition=left;verticalLabelPosition=top;textDirection=ltr;dashed=1;endFill=0;" parent="s5nf9SFniMlntacgUoqj-4" edge="1">
          <mxGeometry x="0.5265" y="2" width="80" relative="1" as="geometry">
            <mxPoint x="-120.5" y="479" as="sourcePoint" />
            <mxPoint x="-460.5" y="479" as="targetPoint" />
            <mxPoint x="1" as="offset" />
          </mxGeometry>
        </mxCell>
        <mxCell id="s5nf9SFniMlntacgUoqj-5" value="Opens the application" style="html=1;verticalAlign=bottom;endArrow=block;curved=0;rounded=0;align=center;labelPosition=left;verticalLabelPosition=top;textDirection=ltr;" parent="1" target="s5nf9SFniMlntacgUoqj-1" edge="1">
          <mxGeometry width="80" relative="1" as="geometry">
            <mxPoint x="160" y="110" as="sourcePoint" />
            <mxPoint x="240" y="110" as="targetPoint" />
          </mxGeometry>
        </mxCell>
        <mxCell id="s5nf9SFniMlntacgUoqj-6" value="Display Home Screen" style="html=1;verticalAlign=bottom;endArrow=open;curved=0;rounded=0;entryX=0.5;entryY=0.24;entryDx=0;entryDy=0;entryPerimeter=0;align=center;labelPosition=left;verticalLabelPosition=top;textDirection=ltr;dashed=1;endFill=0;" parent="1" edge="1">
          <mxGeometry width="80" relative="1" as="geometry">
            <mxPoint x="330" y="140" as="sourcePoint" />
            <mxPoint x="160" y="140" as="targetPoint" />
          </mxGeometry>
        </mxCell>
        <mxCell id="s5nf9SFniMlntacgUoqj-7" value="Navigate to &quot;Login&quot;" style="html=1;verticalAlign=bottom;endArrow=block;curved=0;rounded=0;align=center;labelPosition=left;verticalLabelPosition=top;textDirection=ltr;" parent="1" target="s5nf9SFniMlntacgUoqj-1" edge="1">
          <mxGeometry width="80" relative="1" as="geometry">
            <mxPoint x="160" y="180" as="sourcePoint" />
            <mxPoint x="510" y="182" as="targetPoint" />
          </mxGeometry>
        </mxCell>
        <mxCell id="s5nf9SFniMlntacgUoqj-8" value="Prompts for Login info" style="html=1;verticalAlign=bottom;endArrow=open;curved=0;rounded=0;align=center;labelPosition=left;verticalLabelPosition=top;textDirection=ltr;dashed=1;endFill=0;" parent="1" edge="1">
          <mxGeometry width="80" relative="1" as="geometry">
            <mxPoint x="330" y="214" as="sourcePoint" />
            <mxPoint x="160" y="214" as="targetPoint" />
          </mxGeometry>
        </mxCell>
        <mxCell id="s5nf9SFniMlntacgUoqj-9" value="Enter Information" style="html=1;verticalAlign=bottom;endArrow=block;curved=0;rounded=0;align=center;labelPosition=left;verticalLabelPosition=top;textDirection=ltr;" parent="1" edge="1">
          <mxGeometry width="80" relative="1" as="geometry">
            <mxPoint x="160" y="250" as="sourcePoint" />
            <mxPoint x="330" y="250" as="targetPoint" />
          </mxGeometry>
        </mxCell>
        <mxCell id="s5nf9SFniMlntacgUoqj-16" value="Verifies credentials" style="html=1;verticalAlign=bottom;endArrow=block;curved=0;rounded=0;align=center;labelPosition=left;verticalLabelPosition=top;textDirection=ltr;" parent="1" source="s5nf9SFniMlntacgUoqj-42" edge="1">
          <mxGeometry width="80" relative="1" as="geometry">
            <mxPoint x="520" y="310" as="sourcePoint" />
            <mxPoint x="669" y="310" as="targetPoint" />
          </mxGeometry>
        </mxCell>
        <mxCell id="s5nf9SFniMlntacgUoqj-10" value="Sent Login data" style="html=1;verticalAlign=bottom;endArrow=block;curved=0;rounded=0;align=center;labelPosition=left;verticalLabelPosition=top;textDirection=ltr;" parent="1" edge="1">
          <mxGeometry x="0.0029" width="80" relative="1" as="geometry">
            <mxPoint x="340" y="280" as="sourcePoint" />
            <mxPoint x="501" y="280" as="targetPoint" />
            <mxPoint as="offset" />
          </mxGeometry>
        </mxCell>
        <mxCell id="s5nf9SFniMlntacgUoqj-41" value="Credentials Valid" style="html=1;verticalAlign=bottom;endArrow=open;curved=0;rounded=0;align=center;labelPosition=left;verticalLabelPosition=top;textDirection=ltr;dashed=1;endFill=0;" parent="1" target="s5nf9SFniMlntacgUoqj-42" edge="1">
          <mxGeometry width="80" relative="1" as="geometry">
            <mxPoint x="665.5" y="360" as="sourcePoint" />
            <mxPoint x="520" y="360" as="targetPoint" />
          </mxGeometry>
        </mxCell>
        <mxCell id="s5nf9SFniMlntacgUoqj-20" value="Dislplay &quot;Login Sucessfully&quot;&lt;br&gt;Message" style="html=1;verticalAlign=bottom;endArrow=open;curved=0;rounded=0;align=center;labelPosition=left;verticalLabelPosition=top;textDirection=ltr;dashed=1;endFill=0;" parent="1" edge="1">
          <mxGeometry x="0.4698" width="80" relative="1" as="geometry">
            <mxPoint x="498" y="404" as="sourcePoint" />
            <mxPoint x="158.5" y="404" as="targetPoint" />
            <mxPoint as="offset" />
          </mxGeometry>
        </mxCell>
        <mxCell id="gLQFdpCxbUBeIzbGOZET-1" value="alt" style="shape=umlFrame;whiteSpace=wrap;html=1;pointerEvents=0;fillColor=#f5f5f5;fontColor=#333333;strokeColor=#666666;" parent="1" vertex="1">
          <mxGeometry x="140" y="320" width="560" height="260" as="geometry" />
        </mxCell>
        <mxCell id="gLQFdpCxbUBeIzbGOZET-2" value="[Data is valid]" style="text;html=1;align=center;verticalAlign=middle;resizable=0;points=[];autosize=1;strokeColor=none;fillColor=none;fontStyle=1" parent="1" vertex="1">
          <mxGeometry x="220" y="318" width="100" height="30" as="geometry" />
        </mxCell>
        <mxCell id="gLQFdpCxbUBeIzbGOZET-3" value="" style="line;strokeWidth=1;fillColor=none;align=left;verticalAlign=middle;spacingTop=-1;spacingLeft=3;spacingRight=3;rotatable=0;labelPosition=right;points=[];portConstraint=eastwest;strokeColor=inherit;dashed=1;" parent="1" vertex="1">
          <mxGeometry x="140" y="436" width="560" height="8" as="geometry" />
        </mxCell>
        <mxCell id="s5nf9SFniMlntacgUoqj-29" value="Credentials invalid" style="html=1;verticalAlign=bottom;endArrow=open;curved=0;rounded=0;align=center;labelPosition=left;verticalLabelPosition=top;textDirection=ltr;dashed=1;endFill=0;" parent="1" edge="1">
          <mxGeometry width="80" relative="1" as="geometry">
            <mxPoint x="669" y="480" as="sourcePoint" />
            <mxPoint x="510" y="480" as="targetPoint" />
          </mxGeometry>
        </mxCell>
        <mxCell id="s5nf9SFniMlntacgUoqj-37" value="&lt;br&gt;&lt;span style=&quot;color: rgb(0, 0, 0); font-family: Helvetica; font-size: 11px; font-style: normal; font-variant-ligatures: normal; font-variant-caps: normal; font-weight: 400; letter-spacing: normal; orphans: 2; text-align: center; text-indent: 0px; text-transform: none; widows: 2; word-spacing: 0px; -webkit-text-stroke-width: 0px; background-color: rgb(255, 255, 255); text-decoration-thickness: initial; text-decoration-style: initial; text-decoration-color: initial; float: none; display: inline !important;&quot;&gt;Re-enters login credentials&lt;/span&gt;" style="html=1;verticalAlign=bottom;endArrow=block;curved=0;rounded=0;align=center;labelPosition=left;verticalLabelPosition=top;textDirection=ltr;" parent="1" edge="1">
          <mxGeometry width="80" relative="1" as="geometry">
            <mxPoint x="160" y="560" as="sourcePoint" />
            <mxPoint x="329.5" y="559.9999999999999" as="targetPoint" />
          </mxGeometry>
        </mxCell>
        <mxCell id="M3i5KGm4KR9CWoiiu_UU-2" value="[Data is invalid]" style="text;html=1;align=center;verticalAlign=middle;resizable=0;points=[];autosize=1;strokeColor=none;fillColor=none;fontStyle=1" parent="1" vertex="1">
          <mxGeometry x="215" y="439" width="110" height="30" as="geometry" />
        </mxCell>
      </root>
    </mxGraphModel>
  </diagram>
  <diagram id="Qy_r-2nYFjTtT0tDM0kH" name="3-Search">
    <mxGraphModel dx="1114" dy="610" grid="1" gridSize="10" guides="1" tooltips="1" connect="1" arrows="1" fold="1" page="1" pageScale="1" pageWidth="850" pageHeight="1100" math="0" shadow="0">
      <root>
        <mxCell id="0" />
        <mxCell id="1" parent="0" />
        <mxCell id="TNnI7GPbyYapZXuuYUMQ-1" value="&lt;br&gt;&lt;br&gt;&lt;br&gt;&lt;br&gt;User" style="shape=umlLifeline;perimeter=lifelinePerimeter;whiteSpace=wrap;html=1;container=1;dropTarget=0;collapsible=0;recursiveResize=0;outlineConnect=0;portConstraint=eastwest;newEdgeStyle={&quot;curved&quot;:0,&quot;rounded&quot;:0};participant=umlActor;fillColor=#a0522d;strokeColor=#6D1F00;fontColor=#212121;" parent="1" vertex="1">
          <mxGeometry x="90" y="41" width="20" height="399" as="geometry" />
        </mxCell>
        <mxCell id="TNnI7GPbyYapZXuuYUMQ-2" value="User Interface" style="shape=umlLifeline;perimeter=lifelinePerimeter;whiteSpace=wrap;html=1;container=1;dropTarget=0;collapsible=0;recursiveResize=0;outlineConnect=0;portConstraint=eastwest;newEdgeStyle={&quot;curved&quot;:0,&quot;rounded&quot;:0};verticalAlign=middle;fillColor=#a0522d;strokeColor=#6D1F00;fontColor=#ffffff;" parent="1" vertex="1">
          <mxGeometry x="200" y="41" width="100" height="399" as="geometry" />
        </mxCell>
        <mxCell id="GI0kt1e6Zux4Z2Ygz4Ei-10" value="" style="html=1;points=[[0,0,0,0,5],[0,1,0,0,-5],[1,0,0,0,5],[1,1,0,0,-5]];perimeter=orthogonalPerimeter;outlineConnect=0;targetShapes=umlLifeline;portConstraint=eastwest;newEdgeStyle={&quot;curved&quot;:0,&quot;rounded&quot;:0};fillColor=#d5e8d4;strokeColor=#82b366;" parent="TNnI7GPbyYapZXuuYUMQ-2" vertex="1">
          <mxGeometry x="49" y="168" width="10" height="192" as="geometry" />
        </mxCell>
        <mxCell id="ieJ7c3OzSiS1HKAen8la-1" value="" style="html=1;points=[[0,0,0,0,5],[0,1,0,0,-5],[1,0,0,0,5],[1,1,0,0,-5]];perimeter=orthogonalPerimeter;outlineConnect=0;targetShapes=umlLifeline;portConstraint=eastwest;newEdgeStyle={&quot;curved&quot;:0,&quot;rounded&quot;:0};fillColor=#d5e8d4;strokeColor=#82b366;" vertex="1" parent="TNnI7GPbyYapZXuuYUMQ-2">
          <mxGeometry x="49" y="97" width="10" height="43" as="geometry" />
        </mxCell>
        <mxCell id="GI0kt1e6Zux4Z2Ygz4Ei-1" value="Search Engines" style="shape=umlLifeline;perimeter=lifelinePerimeter;whiteSpace=wrap;html=1;container=1;dropTarget=0;collapsible=0;recursiveResize=0;outlineConnect=0;portConstraint=eastwest;newEdgeStyle={&quot;curved&quot;:0,&quot;rounded&quot;:0};verticalAlign=middle;fillColor=#a0522d;strokeColor=#6D1F00;fontColor=#ffffff;" parent="1" vertex="1">
          <mxGeometry x="360" y="41" width="100" height="399" as="geometry" />
        </mxCell>
        <mxCell id="GI0kt1e6Zux4Z2Ygz4Ei-2" value="Database" style="shape=umlLifeline;perimeter=lifelinePerimeter;whiteSpace=wrap;html=1;container=1;dropTarget=0;collapsible=0;recursiveResize=0;outlineConnect=0;portConstraint=eastwest;newEdgeStyle={&quot;curved&quot;:0,&quot;rounded&quot;:0};verticalAlign=middle;fillColor=#a0522d;strokeColor=#6D1F00;fontColor=#ffffff;" parent="1" vertex="1">
          <mxGeometry x="520" y="41" width="100" height="399" as="geometry" />
        </mxCell>
        <mxCell id="qNNpLYPe5NX6EpY3YanT-2" value="" style="html=1;points=[[0,0,0,0,5],[0,1,0,0,-5],[1,0,0,0,5],[1,1,0,0,-5]];perimeter=orthogonalPerimeter;outlineConnect=0;targetShapes=umlLifeline;portConstraint=eastwest;newEdgeStyle={&quot;curved&quot;:0,&quot;rounded&quot;:0};fillColor=#d5e8d4;strokeColor=#82b366;" parent="GI0kt1e6Zux4Z2Ygz4Ei-2" vertex="1">
          <mxGeometry x="50" y="222" width="10" height="51" as="geometry" />
        </mxCell>
        <mxCell id="GI0kt1e6Zux4Z2Ygz4Ei-3" value="Initiates book search" style="html=1;verticalAlign=bottom;endArrow=block;curved=0;rounded=0;" parent="1" target="TNnI7GPbyYapZXuuYUMQ-2" edge="1">
          <mxGeometry width="80" relative="1" as="geometry">
            <mxPoint x="100" y="139" as="sourcePoint" />
            <mxPoint x="180" y="139" as="targetPoint" />
          </mxGeometry>
        </mxCell>
        <mxCell id="GI0kt1e6Zux4Z2Ygz4Ei-4" value="Sends search query" style="html=1;verticalAlign=bottom;endArrow=block;curved=0;rounded=0;" parent="1" edge="1">
          <mxGeometry x="0.0031" width="80" relative="1" as="geometry">
            <mxPoint x="259.5" y="230.5" as="sourcePoint" />
            <mxPoint x="409" y="230.5" as="targetPoint" />
            <mxPoint as="offset" />
          </mxGeometry>
        </mxCell>
        <mxCell id="GI0kt1e6Zux4Z2Ygz4Ei-5" value="Queries for books" style="html=1;verticalAlign=bottom;endArrow=block;curved=0;rounded=0;" parent="1" edge="1">
          <mxGeometry x="0.0031" width="80" relative="1" as="geometry">
            <mxPoint x="410" y="263" as="sourcePoint" />
            <mxPoint x="570" y="263.5" as="targetPoint" />
            <mxPoint as="offset" />
          </mxGeometry>
        </mxCell>
        <mxCell id="GI0kt1e6Zux4Z2Ygz4Ei-7" value="Returns search results" style="html=1;verticalAlign=bottom;endArrow=open;curved=0;rounded=0;dashed=1;endFill=0;" parent="1" edge="1">
          <mxGeometry width="80" relative="1" as="geometry">
            <mxPoint x="570" y="313.5" as="sourcePoint" />
            <mxPoint x="419" y="313.5" as="targetPoint" />
            <mxPoint as="offset" />
          </mxGeometry>
        </mxCell>
        <mxCell id="GI0kt1e6Zux4Z2Ygz4Ei-8" value="Returns search results" style="html=1;verticalAlign=bottom;endArrow=open;curved=0;rounded=0;dashed=1;endFill=0;" parent="1" edge="1">
          <mxGeometry width="80" relative="1" as="geometry">
            <mxPoint x="410" y="341.5" as="sourcePoint" />
            <mxPoint x="260" y="341" as="targetPoint" />
            <mxPoint as="offset" />
          </mxGeometry>
        </mxCell>
        <mxCell id="GI0kt1e6Zux4Z2Ygz4Ei-9" value="Displays search results" style="html=1;verticalAlign=bottom;endArrow=open;curved=0;rounded=0;dashed=1;endFill=0;" parent="1" edge="1">
          <mxGeometry width="80" relative="1" as="geometry">
            <mxPoint x="250" y="400" as="sourcePoint" />
            <mxPoint x="100" y="400" as="targetPoint" />
            <mxPoint as="offset" />
          </mxGeometry>
        </mxCell>
        <mxCell id="qNNpLYPe5NX6EpY3YanT-1" value="" style="html=1;points=[[0,0,0,0,5],[0,1,0,0,-5],[1,0,0,0,5],[1,1,0,0,-5]];perimeter=orthogonalPerimeter;outlineConnect=0;targetShapes=umlLifeline;portConstraint=eastwest;newEdgeStyle={&quot;curved&quot;:0,&quot;rounded&quot;:0};fillColor=#d5e8d4;strokeColor=#82b366;" parent="1" vertex="1">
          <mxGeometry x="409" y="230" width="10" height="111" as="geometry" />
        </mxCell>
        <mxCell id="tZnDveoq5CuCuH7VfWa9-1" value="Prompts for&amp;nbsp; Search" style="html=1;verticalAlign=bottom;endArrow=open;curved=0;rounded=0;dashed=1;endFill=0;" parent="1" edge="1">
          <mxGeometry width="80" relative="1" as="geometry">
            <mxPoint x="247" y="180" as="sourcePoint" />
            <mxPoint x="100" y="181" as="targetPoint" />
            <mxPoint as="offset" />
          </mxGeometry>
        </mxCell>
        <mxCell id="Pg7jTPjzpyTLPiIIQPyz-1" value="Enter Search value" style="html=1;verticalAlign=bottom;endArrow=block;curved=0;rounded=0;" parent="1" edge="1">
          <mxGeometry x="0.0031" width="80" relative="1" as="geometry">
            <mxPoint x="100" y="210" as="sourcePoint" />
            <mxPoint x="249.5" y="210" as="targetPoint" />
            <mxPoint as="offset" />
          </mxGeometry>
        </mxCell>
      </root>
    </mxGraphModel>
  </diagram>
  <diagram id="5-QL-CxU74rCB4x1K4wd" name="4-viewbook">
    <mxGraphModel dx="1114" dy="610" grid="1" gridSize="10" guides="1" tooltips="1" connect="1" arrows="1" fold="1" page="1" pageScale="1" pageWidth="850" pageHeight="1100" math="0" shadow="0">
      <root>
        <mxCell id="0" />
        <mxCell id="1" parent="0" />
        <mxCell id="0iFs8PF8CKnE8deRCWBK-1" value="&lt;br&gt;&lt;br&gt;&lt;br&gt;&lt;br&gt;User" style="shape=umlLifeline;perimeter=lifelinePerimeter;whiteSpace=wrap;html=1;container=1;dropTarget=0;collapsible=0;recursiveResize=0;outlineConnect=0;portConstraint=eastwest;newEdgeStyle={&quot;curved&quot;:0,&quot;rounded&quot;:0};participant=umlActor;fillColor=#a0522d;fontColor=#000000;strokeColor=#6D1F00;" parent="1" vertex="1">
          <mxGeometry x="100" y="51" width="20" height="349" as="geometry" />
        </mxCell>
        <mxCell id="0iFs8PF8CKnE8deRCWBK-2" value="User Interface" style="shape=umlLifeline;perimeter=lifelinePerimeter;whiteSpace=wrap;html=1;container=1;dropTarget=0;collapsible=0;recursiveResize=0;outlineConnect=0;portConstraint=eastwest;newEdgeStyle={&quot;curved&quot;:0,&quot;rounded&quot;:0};verticalAlign=middle;fillColor=#a0522d;fontColor=#ffffff;strokeColor=#6D1F00;" parent="1" vertex="1">
          <mxGeometry x="210" y="51" width="100" height="349" as="geometry" />
        </mxCell>
        <mxCell id="0iFs8PF8CKnE8deRCWBK-3" value="" style="html=1;points=[[0,0,0,0,5],[0,1,0,0,-5],[1,0,0,0,5],[1,1,0,0,-5]];perimeter=orthogonalPerimeter;outlineConnect=0;targetShapes=umlLifeline;portConstraint=eastwest;newEdgeStyle={&quot;curved&quot;:0,&quot;rounded&quot;:0};fillColor=#d5e8d4;strokeColor=#82b366;" parent="0iFs8PF8CKnE8deRCWBK-2" vertex="1">
          <mxGeometry x="49" y="171" width="10" height="159" as="geometry" />
        </mxCell>
        <mxCell id="rJLEGZVnRMMWne-Dka9j-2" value="" style="html=1;points=[[0,0,0,0,5],[0,1,0,0,-5],[1,0,0,0,5],[1,1,0,0,-5]];perimeter=orthogonalPerimeter;outlineConnect=0;targetShapes=umlLifeline;portConstraint=eastwest;newEdgeStyle={&quot;curved&quot;:0,&quot;rounded&quot;:0};fillColor=#d5e8d4;strokeColor=#82b366;" vertex="1" parent="0iFs8PF8CKnE8deRCWBK-2">
          <mxGeometry x="50" y="96" width="10" height="44" as="geometry" />
        </mxCell>
        <mxCell id="0iFs8PF8CKnE8deRCWBK-4" value="Database" style="shape=umlLifeline;perimeter=lifelinePerimeter;whiteSpace=wrap;html=1;container=1;dropTarget=0;collapsible=0;recursiveResize=0;outlineConnect=0;portConstraint=eastwest;newEdgeStyle={&quot;curved&quot;:0,&quot;rounded&quot;:0};verticalAlign=middle;fillColor=#a0522d;fontColor=#ffffff;strokeColor=#6D1F00;" parent="1" vertex="1">
          <mxGeometry x="450" y="51" width="100" height="349" as="geometry" />
        </mxCell>
        <mxCell id="0iFs8PF8CKnE8deRCWBK-13" value="" style="html=1;points=[[0,0,0,0,5],[0,1,0,0,-5],[1,0,0,0,5],[1,1,0,0,-5]];perimeter=orthogonalPerimeter;outlineConnect=0;targetShapes=umlLifeline;portConstraint=eastwest;newEdgeStyle={&quot;curved&quot;:0,&quot;rounded&quot;:0};fillColor=#d5e8d4;strokeColor=#82b366;" parent="0iFs8PF8CKnE8deRCWBK-4" vertex="1">
          <mxGeometry x="50" y="200" width="10" height="70" as="geometry" />
        </mxCell>
        <mxCell id="0iFs8PF8CKnE8deRCWBK-7" value="Requests to view a book" style="html=1;verticalAlign=bottom;endArrow=block;curved=0;rounded=0;" parent="1" target="0iFs8PF8CKnE8deRCWBK-2" edge="1">
          <mxGeometry x="0.0033" width="80" relative="1" as="geometry">
            <mxPoint x="110" y="149" as="sourcePoint" />
            <mxPoint x="190" y="149" as="targetPoint" />
            <mxPoint as="offset" />
          </mxGeometry>
        </mxCell>
        <mxCell id="0iFs8PF8CKnE8deRCWBK-8" value="Sent Book Title" style="html=1;verticalAlign=bottom;endArrow=block;curved=0;rounded=0;" parent="1" edge="1">
          <mxGeometry x="0.0022" width="80" relative="1" as="geometry">
            <mxPoint x="270" y="253" as="sourcePoint" />
            <mxPoint x="499.5" y="253" as="targetPoint" />
            <mxPoint as="offset" />
          </mxGeometry>
        </mxCell>
        <mxCell id="0iFs8PF8CKnE8deRCWBK-11" value="Retrieves and returns book details" style="html=1;verticalAlign=bottom;endArrow=open;curved=0;rounded=0;dashed=1;endFill=0;" parent="1" source="0iFs8PF8CKnE8deRCWBK-4" edge="1">
          <mxGeometry width="80" relative="1" as="geometry">
            <mxPoint x="420" y="320.5" as="sourcePoint" />
            <mxPoint x="270" y="320" as="targetPoint" />
            <mxPoint as="offset" />
          </mxGeometry>
        </mxCell>
        <mxCell id="0iFs8PF8CKnE8deRCWBK-12" value="Displays book details" style="html=1;verticalAlign=bottom;endArrow=open;curved=0;rounded=0;dashed=1;endFill=0;" parent="1" edge="1">
          <mxGeometry width="80" relative="1" as="geometry">
            <mxPoint x="260" y="380" as="sourcePoint" />
            <mxPoint x="110" y="380" as="targetPoint" />
            <mxPoint as="offset" />
          </mxGeometry>
        </mxCell>
        <mxCell id="fW1_45elDKiEhAQ8tcOI-1" value="Prompt for Book Title" style="html=1;verticalAlign=bottom;endArrow=open;curved=0;rounded=0;dashed=1;endFill=0;" parent="1" edge="1">
          <mxGeometry width="80" relative="1" as="geometry">
            <mxPoint x="257" y="188" as="sourcePoint" />
            <mxPoint x="110" y="189" as="targetPoint" />
            <mxPoint as="offset" />
          </mxGeometry>
        </mxCell>
        <mxCell id="gzjnA5DKUpTausztklIL-1" value="Enter Book Title" style="html=1;verticalAlign=bottom;endArrow=block;curved=0;rounded=0;" parent="1" target="0iFs8PF8CKnE8deRCWBK-2" edge="1">
          <mxGeometry x="0.0022" width="80" relative="1" as="geometry">
            <mxPoint x="110" y="225" as="sourcePoint" />
            <mxPoint x="210" y="225" as="targetPoint" />
            <mxPoint as="offset" />
          </mxGeometry>
        </mxCell>
      </root>
    </mxGraphModel>
  </diagram>
  <diagram id="QAHhkNhr3Wafjoq3aBpm" name="5-BorrowBook">
    <mxGraphModel dx="1114" dy="610" grid="1" gridSize="10" guides="1" tooltips="1" connect="1" arrows="1" fold="1" page="1" pageScale="1" pageWidth="850" pageHeight="1100" math="0" shadow="0">
      <root>
        <mxCell id="0" />
        <mxCell id="1" parent="0" />
        <mxCell id="S_mnlFDkWgN1CU1BQZlJ-1" value="&lt;br&gt;&lt;br&gt;&lt;br&gt;&lt;br&gt;User" style="shape=umlLifeline;perimeter=lifelinePerimeter;whiteSpace=wrap;html=1;container=1;dropTarget=0;collapsible=0;recursiveResize=0;outlineConnect=0;portConstraint=eastwest;newEdgeStyle={&quot;curved&quot;:0,&quot;rounded&quot;:0};participant=umlActor;fillColor=#a0522d;fontColor=#000000;strokeColor=#6D1F00;" parent="1" vertex="1">
          <mxGeometry x="100" y="51" width="20" height="509" as="geometry" />
        </mxCell>
        <mxCell id="S_mnlFDkWgN1CU1BQZlJ-2" value="User Interface" style="shape=umlLifeline;perimeter=lifelinePerimeter;whiteSpace=wrap;html=1;container=1;dropTarget=0;collapsible=0;recursiveResize=0;outlineConnect=0;portConstraint=eastwest;newEdgeStyle={&quot;curved&quot;:0,&quot;rounded&quot;:0};verticalAlign=middle;fillColor=#a0522d;fontColor=#ffffff;strokeColor=#6D1F00;" parent="1" vertex="1">
          <mxGeometry x="290" y="51" width="100" height="509" as="geometry" />
        </mxCell>
        <mxCell id="S_mnlFDkWgN1CU1BQZlJ-19" value="" style="html=1;points=[[0,0,0,0,5],[0,1,0,0,-5],[1,0,0,0,5],[1,1,0,0,-5]];perimeter=orthogonalPerimeter;outlineConnect=0;targetShapes=umlLifeline;portConstraint=eastwest;newEdgeStyle={&quot;curved&quot;:0,&quot;rounded&quot;:0};fillColor=#d5e8d4;strokeColor=#82b366;" parent="S_mnlFDkWgN1CU1BQZlJ-2" vertex="1">
          <mxGeometry x="50" y="307" width="10" height="154" as="geometry" />
        </mxCell>
        <mxCell id="7PL8ajXsaOxpoqngm8KB-1" value="" style="html=1;points=[[0,0,0,0,5],[0,1,0,0,-5],[1,0,0,0,5],[1,1,0,0,-5]];perimeter=orthogonalPerimeter;outlineConnect=0;targetShapes=umlLifeline;portConstraint=eastwest;newEdgeStyle={&quot;curved&quot;:0,&quot;rounded&quot;:0};fillColor=#d5e8d4;strokeColor=#82b366;" vertex="1" parent="S_mnlFDkWgN1CU1BQZlJ-2">
          <mxGeometry x="50" y="84" width="10" height="36" as="geometry" />
        </mxCell>
        <mxCell id="7PL8ajXsaOxpoqngm8KB-2" value="" style="html=1;points=[[0,0,0,0,5],[0,1,0,0,-5],[1,0,0,0,5],[1,1,0,0,-5]];perimeter=orthogonalPerimeter;outlineConnect=0;targetShapes=umlLifeline;portConstraint=eastwest;newEdgeStyle={&quot;curved&quot;:0,&quot;rounded&quot;:0};fillColor=#d5e8d4;strokeColor=#82b366;" vertex="1" parent="S_mnlFDkWgN1CU1BQZlJ-2">
          <mxGeometry x="50" y="147" width="10" height="113" as="geometry" />
        </mxCell>
        <mxCell id="S_mnlFDkWgN1CU1BQZlJ-4" value="Database" style="shape=umlLifeline;perimeter=lifelinePerimeter;whiteSpace=wrap;html=1;container=1;dropTarget=0;collapsible=0;recursiveResize=0;outlineConnect=0;portConstraint=eastwest;newEdgeStyle={&quot;curved&quot;:0,&quot;rounded&quot;:0};verticalAlign=middle;fillColor=#a0522d;fontColor=#ffffff;strokeColor=#6D1F00;" parent="1" vertex="1">
          <mxGeometry x="510" y="51" width="100" height="509" as="geometry" />
        </mxCell>
        <mxCell id="S_mnlFDkWgN1CU1BQZlJ-20" value="" style="html=1;points=[[0,0,0,0,5],[0,1,0,0,-5],[1,0,0,0,5],[1,1,0,0,-5]];perimeter=orthogonalPerimeter;outlineConnect=0;targetShapes=umlLifeline;portConstraint=eastwest;newEdgeStyle={&quot;curved&quot;:0,&quot;rounded&quot;:0};fillColor=#d5e8d4;strokeColor=#82b366;" parent="S_mnlFDkWgN1CU1BQZlJ-4" vertex="1">
          <mxGeometry x="50" y="179" width="10" height="51" as="geometry" />
        </mxCell>
        <mxCell id="S_mnlFDkWgN1CU1BQZlJ-22" value="" style="html=1;points=[[0,0,0,0,5],[0,1,0,0,-5],[1,0,0,0,5],[1,1,0,0,-5]];perimeter=orthogonalPerimeter;outlineConnect=0;targetShapes=umlLifeline;portConstraint=eastwest;newEdgeStyle={&quot;curved&quot;:0,&quot;rounded&quot;:0};fillColor=#d5e8d4;strokeColor=#82b366;" parent="S_mnlFDkWgN1CU1BQZlJ-4" vertex="1">
          <mxGeometry x="50" y="345" width="10" height="52" as="geometry" />
        </mxCell>
        <mxCell id="S_mnlFDkWgN1CU1BQZlJ-6" value="Requests to borrow a book" style="html=1;verticalAlign=bottom;endArrow=block;curved=0;rounded=0;" parent="1" edge="1">
          <mxGeometry x="0.0033" width="80" relative="1" as="geometry">
            <mxPoint x="110" y="138" as="sourcePoint" />
            <mxPoint x="339.5" y="138" as="targetPoint" />
            <mxPoint as="offset" />
          </mxGeometry>
        </mxCell>
        <mxCell id="S_mnlFDkWgN1CU1BQZlJ-7" value="Sent book borrowing Data" style="html=1;verticalAlign=bottom;endArrow=block;curved=0;rounded=0;entryX=0;entryY=0;entryDx=0;entryDy=0;entryPerimeter=0;" parent="1" edge="1" source="7PL8ajXsaOxpoqngm8KB-2">
          <mxGeometry x="0.0022" width="80" relative="1" as="geometry">
            <mxPoint x="350" y="230" as="sourcePoint" />
            <mxPoint x="560" y="231" as="targetPoint" />
            <mxPoint as="offset" />
          </mxGeometry>
        </mxCell>
        <mxCell id="S_mnlFDkWgN1CU1BQZlJ-8" value="Displays availability message" style="html=1;verticalAlign=bottom;endArrow=open;curved=0;rounded=0;dashed=1;endFill=0;" parent="1" edge="1">
          <mxGeometry x="0.0022" width="80" relative="1" as="geometry">
            <mxPoint x="339.5" y="311" as="sourcePoint" />
            <mxPoint x="110" y="311" as="targetPoint" />
            <mxPoint as="offset" />
          </mxGeometry>
        </mxCell>
        <mxCell id="S_mnlFDkWgN1CU1BQZlJ-9" value="Notifies successful borrowing" style="html=1;verticalAlign=bottom;endArrow=open;curved=0;rounded=0;dashed=1;exitX=0.53;exitY=0.933;exitDx=0;exitDy=0;exitPerimeter=0;endFill=0;" parent="1" edge="1">
          <mxGeometry x="0.0022" width="80" relative="1" as="geometry">
            <mxPoint x="339" y="511.2170000000001" as="sourcePoint" />
            <mxPoint x="109.5" y="511.2170000000001" as="targetPoint" />
            <mxPoint as="offset" />
          </mxGeometry>
        </mxCell>
        <mxCell id="S_mnlFDkWgN1CU1BQZlJ-13" value="Checks book availability" style="html=1;verticalAlign=bottom;endArrow=open;curved=0;rounded=0;dashed=1;endFill=0;" parent="1" edge="1">
          <mxGeometry width="80" relative="1" as="geometry">
            <mxPoint x="560.5" y="281" as="sourcePoint" />
            <mxPoint x="350" y="281" as="targetPoint" />
            <mxPoint as="offset" />
          </mxGeometry>
        </mxCell>
        <mxCell id="S_mnlFDkWgN1CU1BQZlJ-15" value="Requests to borrow a book" style="html=1;verticalAlign=bottom;endArrow=block;curved=0;rounded=0;" parent="1" edge="1">
          <mxGeometry x="0.0033" width="80" relative="1" as="geometry">
            <mxPoint x="110" y="359" as="sourcePoint" />
            <mxPoint x="340" y="359" as="targetPoint" />
            <mxPoint as="offset" />
          </mxGeometry>
        </mxCell>
        <mxCell id="S_mnlFDkWgN1CU1BQZlJ-16" value="Sends borrowing request" style="html=1;verticalAlign=bottom;endArrow=block;curved=0;rounded=0;" parent="1" edge="1" source="S_mnlFDkWgN1CU1BQZlJ-19">
          <mxGeometry x="0.0033" width="80" relative="1" as="geometry">
            <mxPoint x="364" y="398" as="sourcePoint" />
            <mxPoint x="559.5" y="398" as="targetPoint" />
            <mxPoint as="offset" />
          </mxGeometry>
        </mxCell>
        <mxCell id="S_mnlFDkWgN1CU1BQZlJ-17" value="Updates book status" style="html=1;verticalAlign=bottom;endArrow=open;curved=0;rounded=0;dashed=1;endFill=0;entryX=1;entryY=0.591;entryDx=0;entryDy=0;entryPerimeter=0;" parent="1" edge="1" target="S_mnlFDkWgN1CU1BQZlJ-19">
          <mxGeometry x="0.0025" width="80" relative="1" as="geometry">
            <mxPoint x="559.5" y="449" as="sourcePoint" />
            <mxPoint x="362" y="449" as="targetPoint" />
            <mxPoint as="offset" />
          </mxGeometry>
        </mxCell>
        <mxCell id="QaTMmXujjSHTsXzPGtWx-1" value="Display Borrow Book Prompt" style="html=1;verticalAlign=bottom;endArrow=open;curved=0;rounded=0;dashed=1;endFill=0;" parent="1" edge="1">
          <mxGeometry x="0.0022" width="80" relative="1" as="geometry">
            <mxPoint x="339.5" y="170" as="sourcePoint" />
            <mxPoint x="110" y="170" as="targetPoint" />
            <mxPoint as="offset" />
          </mxGeometry>
        </mxCell>
        <mxCell id="WLlSx6annyC-YcnbaBlm-1" value="Enter Information For Borrowing" style="html=1;verticalAlign=bottom;endArrow=block;curved=0;rounded=0;" parent="1" edge="1">
          <mxGeometry x="0.0033" width="80" relative="1" as="geometry">
            <mxPoint x="110" y="200" as="sourcePoint" />
            <mxPoint x="339.5" y="200" as="targetPoint" />
            <mxPoint as="offset" />
          </mxGeometry>
        </mxCell>
      </root>
    </mxGraphModel>
  </diagram>
  <diagram id="T4zSuXA5ZOUC96aDJzZg" name="6-ReturnBook">
    <mxGraphModel dx="1114" dy="610" grid="1" gridSize="10" guides="1" tooltips="1" connect="1" arrows="1" fold="1" page="1" pageScale="1" pageWidth="850" pageHeight="1100" math="0" shadow="0">
      <root>
        <mxCell id="0" />
        <mxCell id="1" parent="0" />
        <mxCell id="CUwydPNLDUtDhvLV4OBC-1" value="&lt;br&gt;&lt;br&gt;&lt;br&gt;&lt;br&gt;User" style="shape=umlLifeline;perimeter=lifelinePerimeter;whiteSpace=wrap;html=1;container=1;dropTarget=0;collapsible=0;recursiveResize=0;outlineConnect=0;portConstraint=eastwest;newEdgeStyle={&quot;curved&quot;:0,&quot;rounded&quot;:0};participant=umlActor;fillColor=#a0522d;fontColor=#000000;strokeColor=#6D1F00;" parent="1" vertex="1">
          <mxGeometry x="100" y="51" width="20" height="429" as="geometry" />
        </mxCell>
        <mxCell id="CUwydPNLDUtDhvLV4OBC-2" value="User Interface" style="shape=umlLifeline;perimeter=lifelinePerimeter;whiteSpace=wrap;html=1;container=1;dropTarget=0;collapsible=0;recursiveResize=0;outlineConnect=0;portConstraint=eastwest;newEdgeStyle={&quot;curved&quot;:0,&quot;rounded&quot;:0};verticalAlign=middle;fillColor=#a0522d;fontColor=#ffffff;strokeColor=#6D1F00;" parent="1" vertex="1">
          <mxGeometry x="290" y="51" width="100" height="429" as="geometry" />
        </mxCell>
        <mxCell id="CUwydPNLDUtDhvLV4OBC-3" value="" style="html=1;points=[[0,0,0,0,5],[0,1,0,0,-5],[1,0,0,0,5],[1,1,0,0,-5]];perimeter=orthogonalPerimeter;outlineConnect=0;targetShapes=umlLifeline;portConstraint=eastwest;newEdgeStyle={&quot;curved&quot;:0,&quot;rounded&quot;:0};fillColor=#d5e8d4;strokeColor=#82b366;" parent="CUwydPNLDUtDhvLV4OBC-2" vertex="1">
          <mxGeometry x="50" y="288" width="10" height="120" as="geometry" />
        </mxCell>
        <mxCell id="3upn6mUKxzE0ML2NnIlY-2" value="" style="html=1;points=[[0,0,0,0,5],[0,1,0,0,-5],[1,0,0,0,5],[1,1,0,0,-5]];perimeter=orthogonalPerimeter;outlineConnect=0;targetShapes=umlLifeline;portConstraint=eastwest;newEdgeStyle={&quot;curved&quot;:0,&quot;rounded&quot;:0};fillColor=#d5e8d4;strokeColor=#82b366;" vertex="1" parent="CUwydPNLDUtDhvLV4OBC-2">
          <mxGeometry x="50" y="156.5" width="10" height="93.5" as="geometry" />
        </mxCell>
        <mxCell id="CUwydPNLDUtDhvLV4OBC-6" value="Database" style="shape=umlLifeline;perimeter=lifelinePerimeter;whiteSpace=wrap;html=1;container=1;dropTarget=0;collapsible=0;recursiveResize=0;outlineConnect=0;portConstraint=eastwest;newEdgeStyle={&quot;curved&quot;:0,&quot;rounded&quot;:0};verticalAlign=middle;fillColor=#a0522d;fontColor=#ffffff;strokeColor=#6D1F00;" parent="1" vertex="1">
          <mxGeometry x="510" y="51" width="100" height="429" as="geometry" />
        </mxCell>
        <mxCell id="CUwydPNLDUtDhvLV4OBC-7" value="Requests to return a book" style="html=1;verticalAlign=bottom;endArrow=block;curved=0;rounded=0;" parent="1" edge="1">
          <mxGeometry x="0.0033" width="80" relative="1" as="geometry">
            <mxPoint x="110" y="140" as="sourcePoint" />
            <mxPoint x="339.5" y="140" as="targetPoint" />
            <mxPoint as="offset" />
          </mxGeometry>
        </mxCell>
        <mxCell id="CUwydPNLDUtDhvLV4OBC-8" value="Sent book return data" style="html=1;verticalAlign=bottom;endArrow=block;curved=0;rounded=0;entryX=0;entryY=0;entryDx=0;entryDy=0;entryPerimeter=0;" parent="1" edge="1">
          <mxGeometry x="0.0046" width="80" relative="1" as="geometry">
            <mxPoint x="350" y="228" as="sourcePoint" />
            <mxPoint x="560" y="228" as="targetPoint" />
            <mxPoint as="offset" />
          </mxGeometry>
        </mxCell>
        <mxCell id="CUwydPNLDUtDhvLV4OBC-9" value="Displays message" style="html=1;verticalAlign=bottom;endArrow=open;curved=0;rounded=0;dashed=1;endFill=0;" parent="1" edge="1">
          <mxGeometry x="0.0022" width="80" relative="1" as="geometry">
            <mxPoint x="339.5" y="300" as="sourcePoint" />
            <mxPoint x="110" y="300" as="targetPoint" />
            <mxPoint as="offset" />
          </mxGeometry>
        </mxCell>
        <mxCell id="CUwydPNLDUtDhvLV4OBC-10" value="Notifies success" style="html=1;verticalAlign=bottom;endArrow=open;curved=0;rounded=0;dashed=1;exitX=0.53;exitY=0.933;exitDx=0;exitDy=0;exitPerimeter=0;endFill=0;" parent="1" edge="1">
          <mxGeometry x="0.0022" width="80" relative="1" as="geometry">
            <mxPoint x="339" y="458.2170000000001" as="sourcePoint" />
            <mxPoint x="109.5" y="458.2170000000001" as="targetPoint" />
            <mxPoint as="offset" />
          </mxGeometry>
        </mxCell>
        <mxCell id="CUwydPNLDUtDhvLV4OBC-12" value="Validates return" style="html=1;verticalAlign=bottom;endArrow=open;curved=0;rounded=0;dashed=1;endFill=0;" parent="1" edge="1">
          <mxGeometry width="80" relative="1" as="geometry">
            <mxPoint x="560.5" y="268" as="sourcePoint" />
            <mxPoint x="350" y="268" as="targetPoint" />
            <mxPoint as="offset" />
          </mxGeometry>
        </mxCell>
        <mxCell id="CUwydPNLDUtDhvLV4OBC-14" value="Confirms request" style="html=1;verticalAlign=bottom;endArrow=block;curved=0;rounded=0;" parent="1" edge="1">
          <mxGeometry x="0.0033" width="80" relative="1" as="geometry">
            <mxPoint x="110" y="338" as="sourcePoint" />
            <mxPoint x="340" y="338" as="targetPoint" />
            <mxPoint as="offset" />
          </mxGeometry>
        </mxCell>
        <mxCell id="CUwydPNLDUtDhvLV4OBC-15" value="Sends request" style="html=1;verticalAlign=bottom;endArrow=block;curved=0;rounded=0;" parent="1" source="CUwydPNLDUtDhvLV4OBC-3" edge="1">
          <mxGeometry x="0.0033" width="80" relative="1" as="geometry">
            <mxPoint x="363" y="378" as="sourcePoint" />
            <mxPoint x="560" y="378" as="targetPoint" />
            <mxPoint as="offset" />
          </mxGeometry>
        </mxCell>
        <mxCell id="CUwydPNLDUtDhvLV4OBC-16" value="Updates book status" style="html=1;verticalAlign=bottom;endArrow=open;curved=0;rounded=0;dashed=1;endFill=0;" parent="1" edge="1" target="CUwydPNLDUtDhvLV4OBC-3">
          <mxGeometry x="-0.0023" width="80" relative="1" as="geometry">
            <mxPoint x="559.5" y="418" as="sourcePoint" />
            <mxPoint x="362" y="418" as="targetPoint" />
            <mxPoint as="offset" />
          </mxGeometry>
        </mxCell>
        <mxCell id="UwbkhK-Rnk4XbbwQu1Wv-1" value="Display Return Book Prompt" style="html=1;verticalAlign=bottom;endArrow=open;curved=0;rounded=0;dashed=1;endFill=0;" parent="1" edge="1">
          <mxGeometry x="0.0022" width="80" relative="1" as="geometry">
            <mxPoint x="339.5" y="175" as="sourcePoint" />
            <mxPoint x="110" y="175" as="targetPoint" />
            <mxPoint as="offset" />
          </mxGeometry>
        </mxCell>
        <mxCell id="UID5P9XPyC-qxVyMD-Qj-1" value="Enter Book Return Information" style="html=1;verticalAlign=bottom;endArrow=block;curved=0;rounded=0;" parent="1" edge="1">
          <mxGeometry x="0.0033" width="80" relative="1" as="geometry">
            <mxPoint x="110" y="210" as="sourcePoint" />
            <mxPoint x="339.5" y="210" as="targetPoint" />
            <mxPoint as="offset" />
          </mxGeometry>
        </mxCell>
        <mxCell id="CUwydPNLDUtDhvLV4OBC-4" value="" style="html=1;points=[[0,0,0,0,5],[0,1,0,0,-5],[1,0,0,0,5],[1,1,0,0,-5]];perimeter=orthogonalPerimeter;outlineConnect=0;targetShapes=umlLifeline;portConstraint=eastwest;newEdgeStyle={&quot;curved&quot;:0,&quot;rounded&quot;:0};fillColor=#d5e8d4;strokeColor=#82b366;" parent="1" vertex="1">
          <mxGeometry x="560" y="225" width="10" height="44" as="geometry" />
        </mxCell>
        <mxCell id="3upn6mUKxzE0ML2NnIlY-1" value="" style="html=1;points=[[0,0,0,0,5],[0,1,0,0,-5],[1,0,0,0,5],[1,1,0,0,-5]];perimeter=orthogonalPerimeter;outlineConnect=0;targetShapes=umlLifeline;portConstraint=eastwest;newEdgeStyle={&quot;curved&quot;:0,&quot;rounded&quot;:0};fillColor=#d5e8d4;strokeColor=#82b366;" vertex="1" parent="1">
          <mxGeometry x="560" y="375" width="10" height="44" as="geometry" />
        </mxCell>
        <mxCell id="3upn6mUKxzE0ML2NnIlY-3" value="" style="html=1;points=[[0,0,0,0,5],[0,1,0,0,-5],[1,0,0,0,5],[1,1,0,0,-5]];perimeter=orthogonalPerimeter;outlineConnect=0;targetShapes=umlLifeline;portConstraint=eastwest;newEdgeStyle={&quot;curved&quot;:0,&quot;rounded&quot;:0};fillColor=#d5e8d4;strokeColor=#82b366;" vertex="1" parent="1">
          <mxGeometry x="339" y="138" width="10" height="38" as="geometry" />
        </mxCell>
      </root>
    </mxGraphModel>
  </diagram>
  <diagram id="MPO9GjB6Uxe1s5iF5GBh" name="7-assignRights">
    <mxGraphModel dx="1114" dy="610" grid="1" gridSize="10" guides="1" tooltips="1" connect="1" arrows="1" fold="1" page="1" pageScale="1" pageWidth="850" pageHeight="1100" math="0" shadow="0">
      <root>
        <mxCell id="0" />
        <mxCell id="1" parent="0" />
        <mxCell id="iYHRbJV6iaYrQA4lK1bv-1" value="&lt;br&gt;&lt;br&gt;&lt;br&gt;&lt;br&gt;Admin" style="shape=umlLifeline;perimeter=lifelinePerimeter;whiteSpace=wrap;html=1;container=1;dropTarget=0;collapsible=0;recursiveResize=0;outlineConnect=0;portConstraint=eastwest;newEdgeStyle={&quot;curved&quot;:0,&quot;rounded&quot;:0};participant=umlActor;fillColor=#a0522d;fontColor=#000000;strokeColor=#6D1F00;" parent="1" vertex="1">
          <mxGeometry x="100" y="51" width="20" height="469" as="geometry" />
        </mxCell>
        <mxCell id="iYHRbJV6iaYrQA4lK1bv-2" value="Admin Interface" style="shape=umlLifeline;perimeter=lifelinePerimeter;whiteSpace=wrap;html=1;container=1;dropTarget=0;collapsible=0;recursiveResize=0;outlineConnect=0;portConstraint=eastwest;newEdgeStyle={&quot;curved&quot;:0,&quot;rounded&quot;:0};verticalAlign=middle;fillColor=#a0522d;fontColor=#ffffff;strokeColor=#6D1F00;" parent="1" vertex="1">
          <mxGeometry x="290" y="51" width="100" height="469" as="geometry" />
        </mxCell>
        <mxCell id="iYHRbJV6iaYrQA4lK1bv-3" value="" style="html=1;points=[[0,0,0,0,5],[0,1,0,0,-5],[1,0,0,0,5],[1,1,0,0,-5]];perimeter=orthogonalPerimeter;outlineConnect=0;targetShapes=umlLifeline;portConstraint=eastwest;newEdgeStyle={&quot;curved&quot;:0,&quot;rounded&quot;:0};fillColor=#d5e8d4;strokeColor=#82b366;" parent="iYHRbJV6iaYrQA4lK1bv-2" vertex="1">
          <mxGeometry x="50" y="295" width="10" height="125" as="geometry" />
        </mxCell>
        <mxCell id="YGYxsdmZxwSBtkUgmc3O-1" value="" style="html=1;points=[[0,0,0,0,5],[0,1,0,0,-5],[1,0,0,0,5],[1,1,0,0,-5]];perimeter=orthogonalPerimeter;outlineConnect=0;targetShapes=umlLifeline;portConstraint=eastwest;newEdgeStyle={&quot;curved&quot;:0,&quot;rounded&quot;:0};fillColor=#d5e8d4;strokeColor=#82b366;" vertex="1" parent="iYHRbJV6iaYrQA4lK1bv-2">
          <mxGeometry x="49" y="159" width="10" height="100" as="geometry" />
        </mxCell>
        <mxCell id="6Ru4VGZO9uodxsGMOFy--1" value="" style="html=1;points=[[0,0,0,0,5],[0,1,0,0,-5],[1,0,0,0,5],[1,1,0,0,-5]];perimeter=orthogonalPerimeter;outlineConnect=0;targetShapes=umlLifeline;portConstraint=eastwest;newEdgeStyle={&quot;curved&quot;:0,&quot;rounded&quot;:0};fillColor=#d5e8d4;strokeColor=#82b366;" vertex="1" parent="iYHRbJV6iaYrQA4lK1bv-2">
          <mxGeometry x="49" y="89" width="10" height="41" as="geometry" />
        </mxCell>
        <mxCell id="iYHRbJV6iaYrQA4lK1bv-6" value="Database" style="shape=umlLifeline;perimeter=lifelinePerimeter;whiteSpace=wrap;html=1;container=1;dropTarget=0;collapsible=0;recursiveResize=0;outlineConnect=0;portConstraint=eastwest;newEdgeStyle={&quot;curved&quot;:0,&quot;rounded&quot;:0};verticalAlign=middle;fillColor=#a0522d;fontColor=#ffffff;strokeColor=#6D1F00;" parent="1" vertex="1">
          <mxGeometry x="510" y="51" width="100" height="469" as="geometry" />
        </mxCell>
        <mxCell id="iYHRbJV6iaYrQA4lK1bv-4" value="" style="html=1;points=[[0,0,0,0,5],[0,1,0,0,-5],[1,0,0,0,5],[1,1,0,0,-5]];perimeter=orthogonalPerimeter;outlineConnect=0;targetShapes=umlLifeline;portConstraint=eastwest;newEdgeStyle={&quot;curved&quot;:0,&quot;rounded&quot;:0};fillColor=#d5e8d4;strokeColor=#82b366;" parent="iYHRbJV6iaYrQA4lK1bv-6" vertex="1">
          <mxGeometry x="50" y="189" width="10" height="41" as="geometry" />
        </mxCell>
        <mxCell id="iYHRbJV6iaYrQA4lK1bv-5" value="" style="html=1;points=[[0,0,0,0,5],[0,1,0,0,-5],[1,0,0,0,5],[1,1,0,0,-5]];perimeter=orthogonalPerimeter;outlineConnect=0;targetShapes=umlLifeline;portConstraint=eastwest;newEdgeStyle={&quot;curved&quot;:0,&quot;rounded&quot;:0};fillColor=#d5e8d4;strokeColor=#82b366;" parent="iYHRbJV6iaYrQA4lK1bv-6" vertex="1">
          <mxGeometry x="50" y="333.5" width="10" height="41" as="geometry" />
        </mxCell>
        <mxCell id="iYHRbJV6iaYrQA4lK1bv-7" value="Initiates rights assignment" style="html=1;verticalAlign=bottom;endArrow=block;curved=0;rounded=0;" parent="1" edge="1">
          <mxGeometry x="0.0033" width="80" relative="1" as="geometry">
            <mxPoint x="110" y="143" as="sourcePoint" />
            <mxPoint x="339.5" y="143" as="targetPoint" />
            <mxPoint as="offset" />
          </mxGeometry>
        </mxCell>
        <mxCell id="iYHRbJV6iaYrQA4lK1bv-8" value="Sent User iName/email&amp;nbsp;" style="html=1;verticalAlign=bottom;endArrow=block;curved=0;rounded=0;entryX=0;entryY=0;entryDx=0;entryDy=0;entryPerimeter=0;" parent="1" edge="1">
          <mxGeometry x="0.0046" width="80" relative="1" as="geometry">
            <mxPoint x="350" y="241" as="sourcePoint" />
            <mxPoint x="560" y="241" as="targetPoint" />
            <mxPoint as="offset" />
          </mxGeometry>
        </mxCell>
        <mxCell id="iYHRbJV6iaYrQA4lK1bv-9" value="Selects rights to assign" style="html=1;verticalAlign=bottom;endArrow=open;curved=0;rounded=0;dashed=1;endFill=0;" parent="1" edge="1">
          <mxGeometry x="0.0022" width="80" relative="1" as="geometry">
            <mxPoint x="339.5" y="309" as="sourcePoint" />
            <mxPoint x="110" y="309" as="targetPoint" />
            <mxPoint as="offset" />
          </mxGeometry>
        </mxCell>
        <mxCell id="iYHRbJV6iaYrQA4lK1bv-10" value="Notifies successful assignment" style="html=1;verticalAlign=bottom;endArrow=open;curved=0;rounded=0;dashed=1;exitX=0.53;exitY=0.933;exitDx=0;exitDy=0;exitPerimeter=0;endFill=0;" parent="1" edge="1">
          <mxGeometry x="0.0022" width="80" relative="1" as="geometry">
            <mxPoint x="339" y="470.2170000000001" as="sourcePoint" />
            <mxPoint x="109.5" y="470.2170000000001" as="targetPoint" />
            <mxPoint as="offset" />
          </mxGeometry>
        </mxCell>
        <mxCell id="iYHRbJV6iaYrQA4lK1bv-12" value="Retrieves user information" style="html=1;verticalAlign=bottom;endArrow=open;curved=0;rounded=0;dashed=1;endFill=0;" parent="1" edge="1">
          <mxGeometry width="80" relative="1" as="geometry">
            <mxPoint x="560.5" y="281" as="sourcePoint" />
            <mxPoint x="350" y="281" as="targetPoint" />
            <mxPoint as="offset" />
          </mxGeometry>
        </mxCell>
        <mxCell id="iYHRbJV6iaYrQA4lK1bv-13" value="Confirms rights assignment" style="html=1;verticalAlign=bottom;endArrow=block;curved=0;rounded=0;" parent="1" edge="1">
          <mxGeometry x="0.0022" width="80" relative="1" as="geometry">
            <mxPoint x="110" y="348" as="sourcePoint" />
            <mxPoint x="339.5" y="348" as="targetPoint" />
            <mxPoint as="offset" />
          </mxGeometry>
        </mxCell>
        <mxCell id="iYHRbJV6iaYrQA4lK1bv-15" value="Sends rights assignment request" style="html=1;verticalAlign=bottom;endArrow=block;curved=0;rounded=0;" parent="1" edge="1">
          <mxGeometry x="0.0033" width="80" relative="1" as="geometry">
            <mxPoint x="350" y="386" as="sourcePoint" />
            <mxPoint x="560" y="386" as="targetPoint" />
            <mxPoint as="offset" />
          </mxGeometry>
        </mxCell>
        <mxCell id="iYHRbJV6iaYrQA4lK1bv-16" value="Updates user rights" style="html=1;verticalAlign=bottom;endArrow=open;curved=0;rounded=0;dashed=1;endFill=0;" parent="1" edge="1">
          <mxGeometry x="0.0025" width="80" relative="1" as="geometry">
            <mxPoint x="559.5" y="426" as="sourcePoint" />
            <mxPoint x="350" y="426" as="targetPoint" />
            <mxPoint as="offset" />
          </mxGeometry>
        </mxCell>
        <mxCell id="FYYyyejC1iIukOoFGlqD-1" value="Prompt For User Name/email" style="html=1;verticalAlign=bottom;endArrow=open;curved=0;rounded=0;dashed=1;endFill=0;" parent="1" edge="1">
          <mxGeometry x="0.0022" width="80" relative="1" as="geometry">
            <mxPoint x="339.5" y="180" as="sourcePoint" />
            <mxPoint x="110" y="180" as="targetPoint" />
            <mxPoint as="offset" />
          </mxGeometry>
        </mxCell>
        <mxCell id="sOyI5bsXuBXrLFVW3ZUg-1" value="Enter User Name/email" style="html=1;verticalAlign=bottom;endArrow=block;curved=0;rounded=0;" edge="1" parent="1">
          <mxGeometry x="0.0033" width="80" relative="1" as="geometry">
            <mxPoint x="110" y="213" as="sourcePoint" />
            <mxPoint x="339.5" y="213" as="targetPoint" />
            <mxPoint as="offset" />
          </mxGeometry>
        </mxCell>
      </root>
    </mxGraphModel>
  </diagram>
  <diagram id="dugJLmavUucPi338f9OS" name="8-addBooks">
    <mxGraphModel dx="1114" dy="610" grid="1" gridSize="10" guides="1" tooltips="1" connect="1" arrows="1" fold="1" page="1" pageScale="1" pageWidth="850" pageHeight="1100" math="0" shadow="0">
      <root>
        <mxCell id="0" />
        <mxCell id="1" parent="0" />
        <mxCell id="mI2kgY16Grs_J25LqHSf-1" value="&lt;br&gt;&lt;br&gt;&lt;br&gt;&lt;br&gt;Admin" style="shape=umlLifeline;perimeter=lifelinePerimeter;whiteSpace=wrap;html=1;container=1;dropTarget=0;collapsible=0;recursiveResize=0;outlineConnect=0;portConstraint=eastwest;newEdgeStyle={&quot;curved&quot;:0,&quot;rounded&quot;:0};participant=umlActor;fillColor=#a0522d;fontColor=#000000;strokeColor=#6D1F00;" parent="1" vertex="1">
          <mxGeometry x="100" y="51" width="20" height="309" as="geometry" />
        </mxCell>
        <mxCell id="mI2kgY16Grs_J25LqHSf-2" value="Admin Interface" style="shape=umlLifeline;perimeter=lifelinePerimeter;whiteSpace=wrap;html=1;container=1;dropTarget=0;collapsible=0;recursiveResize=0;outlineConnect=0;portConstraint=eastwest;newEdgeStyle={&quot;curved&quot;:0,&quot;rounded&quot;:0};verticalAlign=middle;fillColor=#a0522d;fontColor=#ffffff;strokeColor=#6D1F00;" parent="1" vertex="1">
          <mxGeometry x="290" y="51" width="100" height="309" as="geometry" />
        </mxCell>
        <mxCell id="mI2kgY16Grs_J25LqHSf-3" value="" style="html=1;points=[[0,0,0,0,5],[0,1,0,0,-5],[1,0,0,0,5],[1,1,0,0,-5]];perimeter=orthogonalPerimeter;outlineConnect=0;targetShapes=umlLifeline;portConstraint=eastwest;newEdgeStyle={&quot;curved&quot;:0,&quot;rounded&quot;:0};fillColor=#d5e8d4;strokeColor=#82b366;" parent="mI2kgY16Grs_J25LqHSf-2" vertex="1">
          <mxGeometry x="49" y="146" width="10" height="124" as="geometry" />
        </mxCell>
        <mxCell id="3X9Ml9N7Tv2VTeSmgSeJ-2" value="" style="html=1;points=[[0,0,0,0,5],[0,1,0,0,-5],[1,0,0,0,5],[1,1,0,0,-5]];perimeter=orthogonalPerimeter;outlineConnect=0;targetShapes=umlLifeline;portConstraint=eastwest;newEdgeStyle={&quot;curved&quot;:0,&quot;rounded&quot;:0};fillColor=#d5e8d4;strokeColor=#82b366;" vertex="1" parent="mI2kgY16Grs_J25LqHSf-2">
          <mxGeometry x="49" y="77" width="10" height="41" as="geometry" />
        </mxCell>
        <mxCell id="mI2kgY16Grs_J25LqHSf-6" value="Database" style="shape=umlLifeline;perimeter=lifelinePerimeter;whiteSpace=wrap;html=1;container=1;dropTarget=0;collapsible=0;recursiveResize=0;outlineConnect=0;portConstraint=eastwest;newEdgeStyle={&quot;curved&quot;:0,&quot;rounded&quot;:0};verticalAlign=middle;fillColor=#a0522d;fontColor=#ffffff;strokeColor=#6D1F00;" parent="1" vertex="1">
          <mxGeometry x="510" y="51" width="100" height="309" as="geometry" />
        </mxCell>
        <mxCell id="3X9Ml9N7Tv2VTeSmgSeJ-1" value="" style="html=1;points=[[0,0,0,0,5],[0,1,0,0,-5],[1,0,0,0,5],[1,1,0,0,-5]];perimeter=orthogonalPerimeter;outlineConnect=0;targetShapes=umlLifeline;portConstraint=eastwest;newEdgeStyle={&quot;curved&quot;:0,&quot;rounded&quot;:0};fillColor=#d5e8d4;strokeColor=#82b366;" vertex="1" parent="mI2kgY16Grs_J25LqHSf-6">
          <mxGeometry x="50" y="166" width="10" height="41" as="geometry" />
        </mxCell>
        <mxCell id="mI2kgY16Grs_J25LqHSf-7" value="Initiates book addition" style="html=1;verticalAlign=bottom;endArrow=block;curved=0;rounded=0;" parent="1" edge="1">
          <mxGeometry x="0.0033" width="80" relative="1" as="geometry">
            <mxPoint x="110" y="132" as="sourcePoint" />
            <mxPoint x="339.5" y="132" as="targetPoint" />
            <mxPoint as="offset" />
          </mxGeometry>
        </mxCell>
        <mxCell id="mI2kgY16Grs_J25LqHSf-8" value="Sent Book Details" style="html=1;verticalAlign=bottom;endArrow=block;curved=0;rounded=0;entryX=0;entryY=0;entryDx=0;entryDy=0;entryPerimeter=0;" parent="1" source="mI2kgY16Grs_J25LqHSf-3" edge="1">
          <mxGeometry x="0.0046" width="80" relative="1" as="geometry">
            <mxPoint x="362" y="220" as="sourcePoint" />
            <mxPoint x="560" y="220" as="targetPoint" />
            <mxPoint as="offset" />
          </mxGeometry>
        </mxCell>
        <mxCell id="mI2kgY16Grs_J25LqHSf-10" value="Notifies successful addition" style="html=1;verticalAlign=bottom;endArrow=open;curved=0;rounded=0;dashed=1;exitX=0.53;exitY=0.933;exitDx=0;exitDy=0;exitPerimeter=0;endFill=0;" parent="1" edge="1">
          <mxGeometry x="0.0022" width="80" relative="1" as="geometry">
            <mxPoint x="339" y="320.2170000000001" as="sourcePoint" />
            <mxPoint x="109.5" y="320.2170000000001" as="targetPoint" />
            <mxPoint as="offset" />
          </mxGeometry>
        </mxCell>
        <mxCell id="mI2kgY16Grs_J25LqHSf-14" value="Stores book information" style="html=1;verticalAlign=bottom;endArrow=open;curved=0;rounded=0;dashed=1;endFill=0;" parent="1" edge="1" target="mI2kgY16Grs_J25LqHSf-3">
          <mxGeometry x="0.0476" width="80" relative="1" as="geometry">
            <mxPoint x="560" y="258" as="sourcePoint" />
            <mxPoint x="360" y="260" as="targetPoint" />
            <mxPoint as="offset" />
          </mxGeometry>
        </mxCell>
        <mxCell id="D1dt0na9-0oEyw6W3xlK-1" value="Prompt For Book Details" style="html=1;verticalAlign=bottom;endArrow=open;curved=0;rounded=0;dashed=1;exitX=0.53;exitY=0.933;exitDx=0;exitDy=0;exitPerimeter=0;endFill=0;" parent="1" edge="1">
          <mxGeometry x="0.0022" width="80" relative="1" as="geometry">
            <mxPoint x="339.5" y="167.9970000000001" as="sourcePoint" />
            <mxPoint x="110" y="167.9970000000001" as="targetPoint" />
            <mxPoint as="offset" />
          </mxGeometry>
        </mxCell>
        <mxCell id="8nqbvb2faZrtCrjcDbQe-2" value="Enter Book Details" style="html=1;verticalAlign=bottom;endArrow=block;curved=0;rounded=0;" parent="1" edge="1">
          <mxGeometry x="0.0033" width="80" relative="1" as="geometry">
            <mxPoint x="110" y="200" as="sourcePoint" />
            <mxPoint x="339.5" y="200" as="targetPoint" />
            <mxPoint as="offset" />
          </mxGeometry>
        </mxCell>
      </root>
    </mxGraphModel>
  </diagram>
  <diagram id="ZfjQWG63nCYIpo_PsXBW" name="9-ModifyBooks">
    <mxGraphModel dx="1114" dy="610" grid="1" gridSize="10" guides="1" tooltips="1" connect="1" arrows="1" fold="1" page="1" pageScale="1" pageWidth="850" pageHeight="1100" math="0" shadow="0">
      <root>
        <mxCell id="0" />
        <mxCell id="1" parent="0" />
        <mxCell id="EXAjkrd10BD2io7eT7YL-1" value="&lt;br&gt;&lt;br&gt;&lt;br&gt;&lt;br&gt;Admin" style="shape=umlLifeline;perimeter=lifelinePerimeter;whiteSpace=wrap;html=1;container=1;dropTarget=0;collapsible=0;recursiveResize=0;outlineConnect=0;portConstraint=eastwest;newEdgeStyle={&quot;curved&quot;:0,&quot;rounded&quot;:0};participant=umlActor;fillColor=#a0522d;fontColor=#000000;strokeColor=#6D1F00;" parent="1" vertex="1">
          <mxGeometry x="100" y="51" width="20" height="429" as="geometry" />
        </mxCell>
        <mxCell id="EXAjkrd10BD2io7eT7YL-2" value="Admin Interface" style="shape=umlLifeline;perimeter=lifelinePerimeter;whiteSpace=wrap;html=1;container=1;dropTarget=0;collapsible=0;recursiveResize=0;outlineConnect=0;portConstraint=eastwest;newEdgeStyle={&quot;curved&quot;:0,&quot;rounded&quot;:0};verticalAlign=middle;fillColor=#a0522d;fontColor=#ffffff;strokeColor=#6D1F00;" parent="1" vertex="1">
          <mxGeometry x="290" y="51" width="100" height="429" as="geometry" />
        </mxCell>
        <mxCell id="EXAjkrd10BD2io7eT7YL-3" value="" style="html=1;points=[[0,0,0,0,5],[0,1,0,0,-5],[1,0,0,0,5],[1,1,0,0,-5]];perimeter=orthogonalPerimeter;outlineConnect=0;targetShapes=umlLifeline;portConstraint=eastwest;newEdgeStyle={&quot;curved&quot;:0,&quot;rounded&quot;:0};fillColor=#d5e8d4;strokeColor=#82b366;" parent="EXAjkrd10BD2io7eT7YL-2" vertex="1">
          <mxGeometry x="50" y="283" width="10" height="127" as="geometry" />
        </mxCell>
        <mxCell id="extdhjG1nFtKZre0Jufy-3" value="" style="html=1;points=[[0,0,0,0,5],[0,1,0,0,-5],[1,0,0,0,5],[1,1,0,0,-5]];perimeter=orthogonalPerimeter;outlineConnect=0;targetShapes=umlLifeline;portConstraint=eastwest;newEdgeStyle={&quot;curved&quot;:0,&quot;rounded&quot;:0};fillColor=#d5e8d4;strokeColor=#82b366;" vertex="1" parent="EXAjkrd10BD2io7eT7YL-2">
          <mxGeometry x="50" y="139" width="10" height="111" as="geometry" />
        </mxCell>
        <mxCell id="extdhjG1nFtKZre0Jufy-4" value="" style="html=1;points=[[0,0,0,0,5],[0,1,0,0,-5],[1,0,0,0,5],[1,1,0,0,-5]];perimeter=orthogonalPerimeter;outlineConnect=0;targetShapes=umlLifeline;portConstraint=eastwest;newEdgeStyle={&quot;curved&quot;:0,&quot;rounded&quot;:0};fillColor=#d5e8d4;strokeColor=#82b366;" vertex="1" parent="EXAjkrd10BD2io7eT7YL-2">
          <mxGeometry x="50" y="79" width="10" height="31" as="geometry" />
        </mxCell>
        <mxCell id="EXAjkrd10BD2io7eT7YL-6" value="Database" style="shape=umlLifeline;perimeter=lifelinePerimeter;whiteSpace=wrap;html=1;container=1;dropTarget=0;collapsible=0;recursiveResize=0;outlineConnect=0;portConstraint=eastwest;newEdgeStyle={&quot;curved&quot;:0,&quot;rounded&quot;:0};verticalAlign=middle;fillColor=#a0522d;fontColor=#ffffff;strokeColor=#6D1F00;" parent="1" vertex="1">
          <mxGeometry x="510" y="51" width="100" height="429" as="geometry" />
        </mxCell>
        <mxCell id="extdhjG1nFtKZre0Jufy-1" value="" style="html=1;points=[[0,0,0,0,5],[0,1,0,0,-5],[1,0,0,0,5],[1,1,0,0,-5]];perimeter=orthogonalPerimeter;outlineConnect=0;targetShapes=umlLifeline;portConstraint=eastwest;newEdgeStyle={&quot;curved&quot;:0,&quot;rounded&quot;:0};fillColor=#d5e8d4;strokeColor=#82b366;" vertex="1" parent="EXAjkrd10BD2io7eT7YL-6">
          <mxGeometry x="50" y="165" width="10" height="41" as="geometry" />
        </mxCell>
        <mxCell id="extdhjG1nFtKZre0Jufy-2" value="" style="html=1;points=[[0,0,0,0,5],[0,1,0,0,-5],[1,0,0,0,5],[1,1,0,0,-5]];perimeter=orthogonalPerimeter;outlineConnect=0;targetShapes=umlLifeline;portConstraint=eastwest;newEdgeStyle={&quot;curved&quot;:0,&quot;rounded&quot;:0};fillColor=#d5e8d4;strokeColor=#82b366;" vertex="1" parent="EXAjkrd10BD2io7eT7YL-6">
          <mxGeometry x="51" y="323" width="10" height="47" as="geometry" />
        </mxCell>
        <mxCell id="EXAjkrd10BD2io7eT7YL-7" value="Initiates book modification" style="html=1;verticalAlign=bottom;endArrow=block;curved=0;rounded=0;" parent="1" edge="1">
          <mxGeometry x="0.0022" width="80" relative="1" as="geometry">
            <mxPoint x="110" y="132" as="sourcePoint" />
            <mxPoint x="339.5" y="132" as="targetPoint" />
            <mxPoint as="offset" />
          </mxGeometry>
        </mxCell>
        <mxCell id="EXAjkrd10BD2io7eT7YL-8" value="Sent Data" style="html=1;verticalAlign=bottom;endArrow=block;curved=0;rounded=0;entryX=0;entryY=0;entryDx=0;entryDy=0;entryPerimeter=0;" parent="1" edge="1">
          <mxGeometry x="0.0046" width="80" relative="1" as="geometry">
            <mxPoint x="350" y="216" as="sourcePoint" />
            <mxPoint x="560" y="216" as="targetPoint" />
            <mxPoint as="offset" />
          </mxGeometry>
        </mxCell>
        <mxCell id="EXAjkrd10BD2io7eT7YL-11" value="Retrieves book details" style="html=1;verticalAlign=bottom;endArrow=open;curved=0;rounded=0;dashed=1;endFill=0;" parent="1" edge="1">
          <mxGeometry width="80" relative="1" as="geometry">
            <mxPoint x="560.5" y="256" as="sourcePoint" />
            <mxPoint x="350" y="256" as="targetPoint" />
            <mxPoint as="offset" />
          </mxGeometry>
        </mxCell>
        <mxCell id="EXAjkrd10BD2io7eT7YL-12" value="Sends modified book information" style="html=1;verticalAlign=bottom;endArrow=block;curved=0;rounded=0;" parent="1" source="EXAjkrd10BD2io7eT7YL-3" edge="1">
          <mxGeometry x="0.0476" width="80" relative="1" as="geometry">
            <mxPoint x="362" y="379" as="sourcePoint" />
            <mxPoint x="560" y="377" as="targetPoint" />
            <mxPoint as="offset" />
          </mxGeometry>
        </mxCell>
        <mxCell id="EXAjkrd10BD2io7eT7YL-13" value="Updates book details" style="html=1;verticalAlign=bottom;endArrow=open;curved=0;rounded=0;dashed=1;endFill=0;" parent="1" edge="1" target="EXAjkrd10BD2io7eT7YL-3">
          <mxGeometry x="0.0025" width="80" relative="1" as="geometry">
            <mxPoint x="559.5" y="420" as="sourcePoint" />
            <mxPoint x="362" y="420" as="targetPoint" />
            <mxPoint as="offset" />
          </mxGeometry>
        </mxCell>
        <mxCell id="EXAjkrd10BD2io7eT7YL-14" value="Modifies book details" style="html=1;verticalAlign=bottom;endArrow=open;curved=0;rounded=0;dashed=1;endFill=0;" parent="1" edge="1">
          <mxGeometry width="80" relative="1" as="geometry">
            <mxPoint x="337.5" y="299" as="sourcePoint" />
            <mxPoint x="109.5" y="299" as="targetPoint" />
            <mxPoint as="offset" />
          </mxGeometry>
        </mxCell>
        <mxCell id="EXAjkrd10BD2io7eT7YL-15" value="Confirms book modification" style="html=1;verticalAlign=bottom;endArrow=block;curved=0;rounded=0;" parent="1" edge="1">
          <mxGeometry x="0.0022" width="80" relative="1" as="geometry">
            <mxPoint x="110" y="336" as="sourcePoint" />
            <mxPoint x="339.5" y="336" as="targetPoint" />
            <mxPoint as="offset" />
          </mxGeometry>
        </mxCell>
        <mxCell id="EXAjkrd10BD2io7eT7YL-17" value="Notifies successful modification" style="html=1;verticalAlign=bottom;endArrow=open;curved=0;rounded=0;dashed=1;endFill=0;" parent="1" edge="1">
          <mxGeometry x="0.0025" width="80" relative="1" as="geometry">
            <mxPoint x="340" y="459" as="sourcePoint" />
            <mxPoint x="111" y="459" as="targetPoint" />
            <mxPoint as="offset" />
          </mxGeometry>
        </mxCell>
        <mxCell id="HAD3R0Rzc6FARcfzHtCF-1" value="Prompt For Book Title" style="html=1;verticalAlign=bottom;endArrow=open;curved=0;rounded=0;dashed=1;endFill=0;" parent="1" edge="1">
          <mxGeometry x="0.0022" width="80" relative="1" as="geometry">
            <mxPoint x="337.5" y="161" as="sourcePoint" />
            <mxPoint x="110" y="161" as="targetPoint" />
            <mxPoint as="offset" />
          </mxGeometry>
        </mxCell>
        <mxCell id="hx5OHvJqz2PArAuvsB5v-2" value="Enter Book title" style="html=1;verticalAlign=bottom;endArrow=block;curved=0;rounded=0;" parent="1" edge="1">
          <mxGeometry x="0.0022" width="80" relative="1" as="geometry">
            <mxPoint x="110" y="193" as="sourcePoint" />
            <mxPoint x="339.5" y="193" as="targetPoint" />
            <mxPoint as="offset" />
          </mxGeometry>
        </mxCell>
      </root>
    </mxGraphModel>
  </diagram>
  <diagram id="4nWR6XU5TgM4cJRQZzpc" name="10-deleteBooks">
    <mxGraphModel dx="1114" dy="610" grid="1" gridSize="10" guides="1" tooltips="1" connect="1" arrows="1" fold="1" page="1" pageScale="1" pageWidth="850" pageHeight="1100" math="0" shadow="0">
      <root>
        <mxCell id="0" />
        <mxCell id="1" parent="0" />
        <mxCell id="l8WizUvkXethW2B5wMDo-1" value="&lt;br&gt;&lt;br&gt;&lt;br&gt;&lt;br&gt;Admin" style="shape=umlLifeline;perimeter=lifelinePerimeter;whiteSpace=wrap;html=1;container=1;dropTarget=0;collapsible=0;recursiveResize=0;outlineConnect=0;portConstraint=eastwest;newEdgeStyle={&quot;curved&quot;:0,&quot;rounded&quot;:0};participant=umlActor;fillColor=#a0522d;fontColor=#000000;strokeColor=#6D1F00;" parent="1" vertex="1">
          <mxGeometry x="100" y="51" width="20" height="429" as="geometry" />
        </mxCell>
        <mxCell id="l8WizUvkXethW2B5wMDo-2" value="Admin Interface" style="shape=umlLifeline;perimeter=lifelinePerimeter;whiteSpace=wrap;html=1;container=1;dropTarget=0;collapsible=0;recursiveResize=0;outlineConnect=0;portConstraint=eastwest;newEdgeStyle={&quot;curved&quot;:0,&quot;rounded&quot;:0};verticalAlign=middle;fillColor=#a0522d;fontColor=#ffffff;strokeColor=#6D1F00;" parent="1" vertex="1">
          <mxGeometry x="290" y="51" width="100" height="429" as="geometry" />
        </mxCell>
        <mxCell id="l8WizUvkXethW2B5wMDo-3" value="" style="html=1;points=[[0,0,0,0,5],[0,1,0,0,-5],[1,0,0,0,5],[1,1,0,0,-5]];perimeter=orthogonalPerimeter;outlineConnect=0;targetShapes=umlLifeline;portConstraint=eastwest;newEdgeStyle={&quot;curved&quot;:0,&quot;rounded&quot;:0};fillColor=#d5e8d4;strokeColor=#82b366;" parent="l8WizUvkXethW2B5wMDo-2" vertex="1">
          <mxGeometry x="50" y="284" width="10" height="120" as="geometry" />
        </mxCell>
        <mxCell id="lcGkC32cIL8bCFd6vkiw-3" value="" style="html=1;points=[[0,0,0,0,5],[0,1,0,0,-5],[1,0,0,0,5],[1,1,0,0,-5]];perimeter=orthogonalPerimeter;outlineConnect=0;targetShapes=umlLifeline;portConstraint=eastwest;newEdgeStyle={&quot;curved&quot;:0,&quot;rounded&quot;:0};fillColor=#d5e8d4;strokeColor=#82b366;" vertex="1" parent="l8WizUvkXethW2B5wMDo-2">
          <mxGeometry x="50" y="137" width="10" height="109" as="geometry" />
        </mxCell>
        <mxCell id="lcGkC32cIL8bCFd6vkiw-4" value="" style="html=1;points=[[0,0,0,0,5],[0,1,0,0,-5],[1,0,0,0,5],[1,1,0,0,-5]];perimeter=orthogonalPerimeter;outlineConnect=0;targetShapes=umlLifeline;portConstraint=eastwest;newEdgeStyle={&quot;curved&quot;:0,&quot;rounded&quot;:0};fillColor=#d5e8d4;strokeColor=#82b366;" vertex="1" parent="l8WizUvkXethW2B5wMDo-2">
          <mxGeometry x="50" y="74" width="10" height="36" as="geometry" />
        </mxCell>
        <mxCell id="l8WizUvkXethW2B5wMDo-6" value="Database" style="shape=umlLifeline;perimeter=lifelinePerimeter;whiteSpace=wrap;html=1;container=1;dropTarget=0;collapsible=0;recursiveResize=0;outlineConnect=0;portConstraint=eastwest;newEdgeStyle={&quot;curved&quot;:0,&quot;rounded&quot;:0};verticalAlign=middle;fillColor=#a0522d;fontColor=#ffffff;strokeColor=#6D1F00;" parent="1" vertex="1">
          <mxGeometry x="510" y="51" width="100" height="429" as="geometry" />
        </mxCell>
        <mxCell id="lcGkC32cIL8bCFd6vkiw-2" value="" style="html=1;points=[[0,0,0,0,5],[0,1,0,0,-5],[1,0,0,0,5],[1,1,0,0,-5]];perimeter=orthogonalPerimeter;outlineConnect=0;targetShapes=umlLifeline;portConstraint=eastwest;newEdgeStyle={&quot;curved&quot;:0,&quot;rounded&quot;:0};fillColor=#d5e8d4;strokeColor=#82b366;" vertex="1" parent="l8WizUvkXethW2B5wMDo-6">
          <mxGeometry x="50" y="322.5" width="10" height="41" as="geometry" />
        </mxCell>
        <mxCell id="l8WizUvkXethW2B5wMDo-7" value="Initiates book deletion" style="html=1;verticalAlign=bottom;endArrow=block;curved=0;rounded=0;" parent="1" edge="1">
          <mxGeometry x="0.0022" width="80" relative="1" as="geometry">
            <mxPoint x="110" y="128" as="sourcePoint" />
            <mxPoint x="339.5" y="128" as="targetPoint" />
            <mxPoint as="offset" />
          </mxGeometry>
        </mxCell>
        <mxCell id="l8WizUvkXethW2B5wMDo-8" value="Sent Data" style="html=1;verticalAlign=bottom;endArrow=block;curved=0;rounded=0;entryX=0;entryY=0;entryDx=0;entryDy=0;entryPerimeter=0;" parent="1" edge="1">
          <mxGeometry x="0.0046" width="80" relative="1" as="geometry">
            <mxPoint x="350" y="214" as="sourcePoint" />
            <mxPoint x="560" y="214" as="targetPoint" />
            <mxPoint as="offset" />
          </mxGeometry>
        </mxCell>
        <mxCell id="l8WizUvkXethW2B5wMDo-10" value="Retrieves book details" style="html=1;verticalAlign=bottom;endArrow=open;curved=0;rounded=0;dashed=1;endFill=0;" parent="1" edge="1">
          <mxGeometry width="80" relative="1" as="geometry">
            <mxPoint x="560.5" y="253" as="sourcePoint" />
            <mxPoint x="350" y="253" as="targetPoint" />
            <mxPoint as="offset" />
          </mxGeometry>
        </mxCell>
        <mxCell id="l8WizUvkXethW2B5wMDo-11" value="Sends book deletion request" style="html=1;verticalAlign=bottom;endArrow=block;curved=0;rounded=0;" parent="1" edge="1" source="l8WizUvkXethW2B5wMDo-3">
          <mxGeometry x="0.0476" width="80" relative="1" as="geometry">
            <mxPoint x="360" y="375" as="sourcePoint" />
            <mxPoint x="560" y="375" as="targetPoint" />
            <mxPoint as="offset" />
          </mxGeometry>
        </mxCell>
        <mxCell id="l8WizUvkXethW2B5wMDo-12" value="Deletes book" style="html=1;verticalAlign=bottom;endArrow=open;curved=0;rounded=0;dashed=1;endFill=0;" parent="1" target="l8WizUvkXethW2B5wMDo-3" edge="1">
          <mxGeometry x="0.0025" width="80" relative="1" as="geometry">
            <mxPoint x="559.5" y="414" as="sourcePoint" />
            <mxPoint x="363" y="414" as="targetPoint" />
            <mxPoint as="offset" />
          </mxGeometry>
        </mxCell>
        <mxCell id="l8WizUvkXethW2B5wMDo-13" value="Confirms book deletion" style="html=1;verticalAlign=bottom;endArrow=open;curved=0;rounded=0;dashed=1;endFill=0;" parent="1" edge="1">
          <mxGeometry width="80" relative="1" as="geometry">
            <mxPoint x="337.5" y="295" as="sourcePoint" />
            <mxPoint x="109.5" y="295" as="targetPoint" />
            <mxPoint as="offset" />
          </mxGeometry>
        </mxCell>
        <mxCell id="l8WizUvkXethW2B5wMDo-14" value="Confirms book deletion request" style="html=1;verticalAlign=bottom;endArrow=block;curved=0;rounded=0;" parent="1" edge="1">
          <mxGeometry x="0.0022" width="80" relative="1" as="geometry">
            <mxPoint x="110" y="334" as="sourcePoint" />
            <mxPoint x="339.5" y="334" as="targetPoint" />
            <mxPoint as="offset" />
          </mxGeometry>
        </mxCell>
        <mxCell id="l8WizUvkXethW2B5wMDo-16" value="Notifies successful deletion" style="html=1;verticalAlign=bottom;endArrow=open;curved=0;rounded=0;dashed=1;endFill=0;" parent="1" edge="1">
          <mxGeometry x="0.0025" width="80" relative="1" as="geometry">
            <mxPoint x="340" y="454" as="sourcePoint" />
            <mxPoint x="111" y="454" as="targetPoint" />
            <mxPoint as="offset" />
          </mxGeometry>
        </mxCell>
        <mxCell id="SE_Y43PuFGH1YS--UbBj-1" value="Prompt For Book Title" style="html=1;verticalAlign=bottom;endArrow=open;curved=0;rounded=0;dashed=1;endFill=0;" parent="1" edge="1">
          <mxGeometry width="80" relative="1" as="geometry">
            <mxPoint x="337.5" y="160" as="sourcePoint" />
            <mxPoint x="110" y="160" as="targetPoint" />
            <mxPoint as="offset" />
          </mxGeometry>
        </mxCell>
        <mxCell id="xxrEyagmrwr3OrjmukoT-1" value="Enter Book Title" style="html=1;verticalAlign=bottom;endArrow=block;curved=0;rounded=0;" parent="1" edge="1">
          <mxGeometry x="0.0022" width="80" relative="1" as="geometry">
            <mxPoint x="110" y="190" as="sourcePoint" />
            <mxPoint x="339.5" y="190" as="targetPoint" />
            <mxPoint as="offset" />
          </mxGeometry>
        </mxCell>
        <mxCell id="lcGkC32cIL8bCFd6vkiw-1" value="" style="html=1;points=[[0,0,0,0,5],[0,1,0,0,-5],[1,0,0,0,5],[1,1,0,0,-5]];perimeter=orthogonalPerimeter;outlineConnect=0;targetShapes=umlLifeline;portConstraint=eastwest;newEdgeStyle={&quot;curved&quot;:0,&quot;rounded&quot;:0};fillColor=#d5e8d4;strokeColor=#82b366;" vertex="1" parent="1">
          <mxGeometry x="560" y="213" width="10" height="40" as="geometry" />
        </mxCell>
      </root>
    </mxGraphModel>
  </diagram>
  <diagram id="YSUdn6wS0-ypNktiu_aw" name="11-ImposeFine">
    <mxGraphModel dx="1114" dy="610" grid="1" gridSize="10" guides="1" tooltips="1" connect="1" arrows="1" fold="1" page="1" pageScale="1" pageWidth="850" pageHeight="1100" math="0" shadow="0">
      <root>
        <mxCell id="0" />
        <mxCell id="1" parent="0" />
        <mxCell id="ZJ0ed8maXh2W7IK6TodN-1" value="&lt;br&gt;&lt;br&gt;&lt;br&gt;&lt;br&gt;Admin" style="shape=umlLifeline;perimeter=lifelinePerimeter;whiteSpace=wrap;html=1;container=1;dropTarget=0;collapsible=0;recursiveResize=0;outlineConnect=0;portConstraint=eastwest;newEdgeStyle={&quot;curved&quot;:0,&quot;rounded&quot;:0};participant=umlActor;fillColor=#a0522d;fontColor=#000000;strokeColor=#6D1F00;" parent="1" vertex="1">
          <mxGeometry x="100" y="51" width="20" height="509" as="geometry" />
        </mxCell>
        <mxCell id="ZJ0ed8maXh2W7IK6TodN-2" value="Admin Interface" style="shape=umlLifeline;perimeter=lifelinePerimeter;whiteSpace=wrap;html=1;container=1;dropTarget=0;collapsible=0;recursiveResize=0;outlineConnect=0;portConstraint=eastwest;newEdgeStyle={&quot;curved&quot;:0,&quot;rounded&quot;:0};verticalAlign=middle;fillColor=#a0522d;fontColor=#ffffff;strokeColor=#6D1F00;" parent="1" vertex="1">
          <mxGeometry x="290" y="51" width="100" height="509" as="geometry" />
        </mxCell>
        <mxCell id="ZJ0ed8maXh2W7IK6TodN-3" value="" style="html=1;points=[[0,0,0,0,5],[0,1,0,0,-5],[1,0,0,0,5],[1,1,0,0,-5]];perimeter=orthogonalPerimeter;outlineConnect=0;targetShapes=umlLifeline;portConstraint=eastwest;newEdgeStyle={&quot;curved&quot;:0,&quot;rounded&quot;:0};fillColor=#d5e8d4;strokeColor=#82b366;" parent="ZJ0ed8maXh2W7IK6TodN-2" vertex="1">
          <mxGeometry x="49" y="365" width="10" height="122" as="geometry" />
        </mxCell>
        <mxCell id="doVchl6BuaDcNmGgdAF5-3" value="" style="html=1;points=[[0,0,0,0,5],[0,1,0,0,-5],[1,0,0,0,5],[1,1,0,0,-5]];perimeter=orthogonalPerimeter;outlineConnect=0;targetShapes=umlLifeline;portConstraint=eastwest;newEdgeStyle={&quot;curved&quot;:0,&quot;rounded&quot;:0};fillColor=#d5e8d4;strokeColor=#82b366;" vertex="1" parent="ZJ0ed8maXh2W7IK6TodN-2">
          <mxGeometry x="49" y="81" width="10" height="39" as="geometry" />
        </mxCell>
        <mxCell id="doVchl6BuaDcNmGgdAF5-4" value="" style="html=1;points=[[0,0,0,0,5],[0,1,0,0,-5],[1,0,0,0,5],[1,1,0,0,-5]];perimeter=orthogonalPerimeter;outlineConnect=0;targetShapes=umlLifeline;portConstraint=eastwest;newEdgeStyle={&quot;curved&quot;:0,&quot;rounded&quot;:0};fillColor=#d5e8d4;strokeColor=#82b366;" vertex="1" parent="ZJ0ed8maXh2W7IK6TodN-2">
          <mxGeometry x="49" y="146" width="10" height="104" as="geometry" />
        </mxCell>
        <mxCell id="WJIKFhmE5CTvGT39ufKg-1" value="" style="html=1;points=[[0,0,0,0,5],[0,1,0,0,-5],[1,0,0,0,5],[1,1,0,0,-5]];perimeter=orthogonalPerimeter;outlineConnect=0;targetShapes=umlLifeline;portConstraint=eastwest;newEdgeStyle={&quot;curved&quot;:0,&quot;rounded&quot;:0};fillColor=#d5e8d4;strokeColor=#82b366;" vertex="1" parent="ZJ0ed8maXh2W7IK6TodN-2">
          <mxGeometry x="49" y="286" width="10" height="39" as="geometry" />
        </mxCell>
        <mxCell id="ZJ0ed8maXh2W7IK6TodN-6" value="Database" style="shape=umlLifeline;perimeter=lifelinePerimeter;whiteSpace=wrap;html=1;container=1;dropTarget=0;collapsible=0;recursiveResize=0;outlineConnect=0;portConstraint=eastwest;newEdgeStyle={&quot;curved&quot;:0,&quot;rounded&quot;:0};verticalAlign=middle;fillColor=#a0522d;fontColor=#ffffff;strokeColor=#6D1F00;" parent="1" vertex="1">
          <mxGeometry x="510" y="51" width="100" height="509" as="geometry" />
        </mxCell>
        <mxCell id="doVchl6BuaDcNmGgdAF5-2" value="" style="html=1;points=[[0,0,0,0,5],[0,1,0,0,-5],[1,0,0,0,5],[1,1,0,0,-5]];perimeter=orthogonalPerimeter;outlineConnect=0;targetShapes=umlLifeline;portConstraint=eastwest;newEdgeStyle={&quot;curved&quot;:0,&quot;rounded&quot;:0};fillColor=#d5e8d4;strokeColor=#82b366;" vertex="1" parent="ZJ0ed8maXh2W7IK6TodN-6">
          <mxGeometry x="50" y="162" width="10" height="48" as="geometry" />
        </mxCell>
        <mxCell id="ZJ0ed8maXh2W7IK6TodN-5" value="" style="html=1;points=[[0,0,0,0,5],[0,1,0,0,-5],[1,0,0,0,5],[1,1,0,0,-5]];perimeter=orthogonalPerimeter;outlineConnect=0;targetShapes=umlLifeline;portConstraint=eastwest;newEdgeStyle={&quot;curved&quot;:0,&quot;rounded&quot;:0};fillColor=#d5e8d4;strokeColor=#82b366;" parent="ZJ0ed8maXh2W7IK6TodN-6" vertex="1">
          <mxGeometry x="50" y="409.5" width="10" height="39" as="geometry" />
        </mxCell>
        <mxCell id="ZJ0ed8maXh2W7IK6TodN-7" value="Initiates fine imposition" style="html=1;verticalAlign=bottom;endArrow=block;curved=0;rounded=0;" parent="1" edge="1">
          <mxGeometry x="0.0022" width="80" relative="1" as="geometry">
            <mxPoint x="110" y="134" as="sourcePoint" />
            <mxPoint x="339.5" y="134" as="targetPoint" />
            <mxPoint as="offset" />
          </mxGeometry>
        </mxCell>
        <mxCell id="ZJ0ed8maXh2W7IK6TodN-8" value="Sent Details&amp;nbsp;" style="html=1;verticalAlign=bottom;endArrow=block;curved=0;rounded=0;entryX=0;entryY=0;entryDx=0;entryDy=0;entryPerimeter=0;" parent="1" edge="1">
          <mxGeometry x="0.0046" width="80" relative="1" as="geometry">
            <mxPoint x="350" y="215" as="sourcePoint" />
            <mxPoint x="560" y="215" as="targetPoint" />
            <mxPoint as="offset" />
          </mxGeometry>
        </mxCell>
        <mxCell id="ZJ0ed8maXh2W7IK6TodN-10" value="Retrieves user fine details" style="html=1;verticalAlign=bottom;endArrow=open;curved=0;rounded=0;dashed=1;endFill=0;" parent="1" edge="1">
          <mxGeometry width="80" relative="1" as="geometry">
            <mxPoint x="560.5" y="260" as="sourcePoint" />
            <mxPoint x="350" y="260" as="targetPoint" />
            <mxPoint as="offset" />
          </mxGeometry>
        </mxCell>
        <mxCell id="ZJ0ed8maXh2W7IK6TodN-11" value="Sends fine imposition request" style="html=1;verticalAlign=bottom;endArrow=block;curved=0;rounded=0;exitX=1.1;exitY=0.369;exitDx=0;exitDy=0;exitPerimeter=0;" parent="1" edge="1" source="ZJ0ed8maXh2W7IK6TodN-3">
          <mxGeometry x="0.0476" width="80" relative="1" as="geometry">
            <mxPoint x="360" y="461" as="sourcePoint" />
            <mxPoint x="560" y="461" as="targetPoint" />
            <mxPoint as="offset" />
          </mxGeometry>
        </mxCell>
        <mxCell id="ZJ0ed8maXh2W7IK6TodN-12" value="Updates user fine&amp;nbsp;" style="html=1;verticalAlign=bottom;endArrow=open;curved=0;rounded=0;dashed=1;endFill=0;" parent="1" edge="1" target="ZJ0ed8maXh2W7IK6TodN-3">
          <mxGeometry x="0.0025" width="80" relative="1" as="geometry">
            <mxPoint x="559.5" y="499" as="sourcePoint" />
            <mxPoint x="362" y="499" as="targetPoint" />
            <mxPoint as="offset" />
          </mxGeometry>
        </mxCell>
        <mxCell id="ZJ0ed8maXh2W7IK6TodN-13" value="Display Late Return List" style="html=1;verticalAlign=bottom;endArrow=open;curved=0;rounded=0;dashed=1;endFill=0;" parent="1" edge="1">
          <mxGeometry width="80" relative="1" as="geometry">
            <mxPoint x="337.5" y="298" as="sourcePoint" />
            <mxPoint x="109.5" y="298" as="targetPoint" />
            <mxPoint as="offset" />
          </mxGeometry>
        </mxCell>
        <mxCell id="ZJ0ed8maXh2W7IK6TodN-14" value="Select Late Return Book and set fine Amount" style="html=1;verticalAlign=bottom;endArrow=block;curved=0;rounded=0;" parent="1" edge="1">
          <mxGeometry x="0.0022" width="80" relative="1" as="geometry">
            <mxPoint x="110" y="338" as="sourcePoint" />
            <mxPoint x="339.5" y="338" as="targetPoint" />
            <mxPoint as="offset" />
          </mxGeometry>
        </mxCell>
        <mxCell id="ZJ0ed8maXh2W7IK6TodN-16" value="Notifies successful imposition" style="html=1;verticalAlign=bottom;endArrow=open;curved=0;rounded=0;dashed=1;endFill=0;" parent="1" edge="1">
          <mxGeometry x="0.0044" width="80" relative="1" as="geometry">
            <mxPoint x="340" y="538" as="sourcePoint" />
            <mxPoint x="111" y="539" as="targetPoint" />
            <mxPoint as="offset" />
          </mxGeometry>
        </mxCell>
        <mxCell id="VZ8vCmxxCM48xxGpkpi_-1" value="Prompt&amp;nbsp;For user Info" style="html=1;verticalAlign=bottom;endArrow=open;curved=0;rounded=0;dashed=1;endFill=0;" parent="1" edge="1">
          <mxGeometry width="80" relative="1" as="geometry">
            <mxPoint x="337.5" y="170" as="sourcePoint" />
            <mxPoint x="110" y="170" as="targetPoint" />
            <mxPoint as="offset" />
          </mxGeometry>
        </mxCell>
        <mxCell id="VZ8vCmxxCM48xxGpkpi_-3" value="Confirm Fine Imposition" style="html=1;verticalAlign=bottom;endArrow=block;curved=0;rounded=0;" parent="1" edge="1">
          <mxGeometry x="0.0022" width="80" relative="1" as="geometry">
            <mxPoint x="110" y="419" as="sourcePoint" />
            <mxPoint x="339.5" y="419" as="targetPoint" />
            <mxPoint as="offset" />
          </mxGeometry>
        </mxCell>
        <mxCell id="J__c4gwemW1HR52FbLyS-2" value="Enter user Info" style="html=1;verticalAlign=bottom;endArrow=block;curved=0;rounded=0;" parent="1" edge="1">
          <mxGeometry x="0.0022" width="80" relative="1" as="geometry">
            <mxPoint x="110" y="200" as="sourcePoint" />
            <mxPoint x="339.5" y="200" as="targetPoint" />
            <mxPoint as="offset" />
          </mxGeometry>
        </mxCell>
        <mxCell id="nRgFEtnS7nDNe-Avnj2x-1" value="Display confirmation message" style="html=1;verticalAlign=bottom;endArrow=open;curved=0;rounded=0;dashed=1;endFill=0;" edge="1" parent="1">
          <mxGeometry width="80" relative="1" as="geometry">
            <mxPoint x="340.5" y="376" as="sourcePoint" />
            <mxPoint x="109.5" y="376" as="targetPoint" />
            <mxPoint as="offset" />
          </mxGeometry>
        </mxCell>
      </root>
    </mxGraphModel>
  </diagram>
  <diagram id="pFIuRraZmnkxSRNXHRNj" name="12-PayFine">
    <mxGraphModel dx="1114" dy="610" grid="1" gridSize="10" guides="1" tooltips="1" connect="1" arrows="1" fold="1" page="1" pageScale="1" pageWidth="850" pageHeight="1100" math="0" shadow="0">
      <root>
        <mxCell id="0" />
        <mxCell id="1" parent="0" />
        <mxCell id="Bp5lAUJihcyq3DgbfH_n-1" value="&lt;br&gt;&lt;br&gt;&lt;br&gt;&lt;br&gt;User" style="shape=umlLifeline;perimeter=lifelinePerimeter;whiteSpace=wrap;html=1;container=1;dropTarget=0;collapsible=0;recursiveResize=0;outlineConnect=0;portConstraint=eastwest;newEdgeStyle={&quot;curved&quot;:0,&quot;rounded&quot;:0};participant=umlActor;fillColor=#a0522d;fontColor=#000000;strokeColor=#6D1F00;" parent="1" vertex="1">
          <mxGeometry x="100" y="51" width="20" height="469" as="geometry" />
        </mxCell>
        <mxCell id="Bp5lAUJihcyq3DgbfH_n-2" value="User Interface" style="shape=umlLifeline;perimeter=lifelinePerimeter;whiteSpace=wrap;html=1;container=1;dropTarget=0;collapsible=0;recursiveResize=0;outlineConnect=0;portConstraint=eastwest;newEdgeStyle={&quot;curved&quot;:0,&quot;rounded&quot;:0};verticalAlign=middle;fillColor=#a0522d;fontColor=#ffffff;strokeColor=#6D1F00;" parent="1" vertex="1">
          <mxGeometry x="290" y="51" width="100" height="469" as="geometry" />
        </mxCell>
        <mxCell id="Bp5lAUJihcyq3DgbfH_n-3" value="" style="html=1;points=[[0,0,0,0,5],[0,1,0,0,-5],[1,0,0,0,5],[1,1,0,0,-5]];perimeter=orthogonalPerimeter;outlineConnect=0;targetShapes=umlLifeline;portConstraint=eastwest;newEdgeStyle={&quot;curved&quot;:0,&quot;rounded&quot;:0};fillColor=#d5e8d4;strokeColor=#82b366;" parent="Bp5lAUJihcyq3DgbfH_n-2" vertex="1">
          <mxGeometry x="50" y="331" width="10" height="100" as="geometry" />
        </mxCell>
        <mxCell id="Nj4LLQJ5qtppOkDbA0C6-1" value="" style="html=1;points=[[0,0,0,0,5],[0,1,0,0,-5],[1,0,0,0,5],[1,1,0,0,-5]];perimeter=orthogonalPerimeter;outlineConnect=0;targetShapes=umlLifeline;portConstraint=eastwest;newEdgeStyle={&quot;curved&quot;:0,&quot;rounded&quot;:0};fillColor=#d5e8d4;strokeColor=#82b366;" vertex="1" parent="Bp5lAUJihcyq3DgbfH_n-2">
          <mxGeometry x="50" y="262" width="10" height="35" as="geometry" />
        </mxCell>
        <mxCell id="Nj4LLQJ5qtppOkDbA0C6-2" value="" style="html=1;points=[[0,0,0,0,5],[0,1,0,0,-5],[1,0,0,0,5],[1,1,0,0,-5]];perimeter=orthogonalPerimeter;outlineConnect=0;targetShapes=umlLifeline;portConstraint=eastwest;newEdgeStyle={&quot;curved&quot;:0,&quot;rounded&quot;:0};fillColor=#d5e8d4;strokeColor=#82b366;" vertex="1" parent="Bp5lAUJihcyq3DgbfH_n-2">
          <mxGeometry x="49" y="142" width="10" height="88" as="geometry" />
        </mxCell>
        <mxCell id="Nj4LLQJ5qtppOkDbA0C6-3" value="" style="html=1;points=[[0,0,0,0,5],[0,1,0,0,-5],[1,0,0,0,5],[1,1,0,0,-5]];perimeter=orthogonalPerimeter;outlineConnect=0;targetShapes=umlLifeline;portConstraint=eastwest;newEdgeStyle={&quot;curved&quot;:0,&quot;rounded&quot;:0};fillColor=#d5e8d4;strokeColor=#82b366;" vertex="1" parent="Bp5lAUJihcyq3DgbfH_n-2">
          <mxGeometry x="49" y="80" width="10" height="35" as="geometry" />
        </mxCell>
        <mxCell id="Bp5lAUJihcyq3DgbfH_n-6" value="Database" style="shape=umlLifeline;perimeter=lifelinePerimeter;whiteSpace=wrap;html=1;container=1;dropTarget=0;collapsible=0;recursiveResize=0;outlineConnect=0;portConstraint=eastwest;newEdgeStyle={&quot;curved&quot;:0,&quot;rounded&quot;:0};verticalAlign=middle;fillColor=#a0522d;fontColor=#ffffff;strokeColor=#6D1F00;" parent="1" vertex="1">
          <mxGeometry x="510" y="51" width="100" height="469" as="geometry" />
        </mxCell>
        <mxCell id="Bp5lAUJihcyq3DgbfH_n-5" value="" style="html=1;points=[[0,0,0,0,5],[0,1,0,0,-5],[1,0,0,0,5],[1,1,0,0,-5]];perimeter=orthogonalPerimeter;outlineConnect=0;targetShapes=umlLifeline;portConstraint=eastwest;newEdgeStyle={&quot;curved&quot;:0,&quot;rounded&quot;:0};fillColor=#d5e8d4;strokeColor=#82b366;" parent="Bp5lAUJihcyq3DgbfH_n-6" vertex="1">
          <mxGeometry x="50" y="359" width="10" height="50" as="geometry" />
        </mxCell>
        <mxCell id="aRgWbJjTlawrUpZAjWXx-1" value="" style="html=1;points=[[0,0,0,0,5],[0,1,0,0,-5],[1,0,0,0,5],[1,1,0,0,-5]];perimeter=orthogonalPerimeter;outlineConnect=0;targetShapes=umlLifeline;portConstraint=eastwest;newEdgeStyle={&quot;curved&quot;:0,&quot;rounded&quot;:0};fillColor=#d5e8d4;strokeColor=#82b366;" vertex="1" parent="Bp5lAUJihcyq3DgbfH_n-6">
          <mxGeometry x="50" y="162" width="10" height="41" as="geometry" />
        </mxCell>
        <mxCell id="Bp5lAUJihcyq3DgbfH_n-7" value="Initiates fine payment" style="html=1;verticalAlign=bottom;endArrow=block;curved=0;rounded=0;" parent="1" edge="1">
          <mxGeometry x="0.0022" width="80" relative="1" as="geometry">
            <mxPoint x="110" y="133" as="sourcePoint" />
            <mxPoint x="339.5" y="133" as="targetPoint" />
            <mxPoint as="offset" />
          </mxGeometry>
        </mxCell>
        <mxCell id="Bp5lAUJihcyq3DgbfH_n-8" value="Sent Detail" style="html=1;verticalAlign=bottom;endArrow=block;curved=0;rounded=0;entryX=0;entryY=0;entryDx=0;entryDy=0;entryPerimeter=0;" parent="1" edge="1">
          <mxGeometry x="0.0046" width="80" relative="1" as="geometry">
            <mxPoint x="350" y="215" as="sourcePoint" />
            <mxPoint x="560" y="215" as="targetPoint" />
            <mxPoint as="offset" />
          </mxGeometry>
        </mxCell>
        <mxCell id="Bp5lAUJihcyq3DgbfH_n-10" value="Retrieves user fine details" style="html=1;verticalAlign=bottom;endArrow=open;curved=0;rounded=0;dashed=1;endFill=0;" parent="1" edge="1">
          <mxGeometry x="-0.0024" width="80" relative="1" as="geometry">
            <mxPoint x="560.5" y="253" as="sourcePoint" />
            <mxPoint x="350" y="253" as="targetPoint" />
            <mxPoint as="offset" />
          </mxGeometry>
        </mxCell>
        <mxCell id="Bp5lAUJihcyq3DgbfH_n-11" value="Sends payment request" style="html=1;verticalAlign=bottom;endArrow=block;curved=0;rounded=0;" parent="1" edge="1">
          <mxGeometry x="0.0476" width="80" relative="1" as="geometry">
            <mxPoint x="350" y="412" as="sourcePoint" />
            <mxPoint x="560" y="412" as="targetPoint" />
            <mxPoint as="offset" />
          </mxGeometry>
        </mxCell>
        <mxCell id="Bp5lAUJihcyq3DgbfH_n-12" value="Updates user fine details" style="html=1;verticalAlign=bottom;endArrow=open;curved=0;rounded=0;dashed=1;endFill=0;" parent="1" edge="1">
          <mxGeometry x="0.0025" width="80" relative="1" as="geometry">
            <mxPoint x="559.5" y="459" as="sourcePoint" />
            <mxPoint x="350" y="459" as="targetPoint" />
            <mxPoint as="offset" />
          </mxGeometry>
        </mxCell>
        <mxCell id="Bp5lAUJihcyq3DgbfH_n-13" value="Displays fine details" style="html=1;verticalAlign=bottom;endArrow=open;curved=0;rounded=0;dashed=1;endFill=0;" parent="1" edge="1">
          <mxGeometry width="80" relative="1" as="geometry">
            <mxPoint x="337.5" y="280" as="sourcePoint" />
            <mxPoint x="109.5" y="280" as="targetPoint" />
            <mxPoint as="offset" />
          </mxGeometry>
        </mxCell>
        <mxCell id="Bp5lAUJihcyq3DgbfH_n-16" value="Notifies successful payment" style="html=1;verticalAlign=bottom;endArrow=open;curved=0;rounded=0;dashed=1;endFill=0;" parent="1" edge="1">
          <mxGeometry x="0.0044" width="80" relative="1" as="geometry">
            <mxPoint x="340" y="480" as="sourcePoint" />
            <mxPoint x="111" y="480" as="targetPoint" />
            <mxPoint as="offset" />
          </mxGeometry>
        </mxCell>
        <mxCell id="Bp5lAUJihcyq3DgbfH_n-17" value="Confirms payment request" style="html=1;verticalAlign=bottom;endArrow=block;curved=0;rounded=0;" parent="1" edge="1">
          <mxGeometry x="0.0022" width="80" relative="1" as="geometry">
            <mxPoint x="110" y="384" as="sourcePoint" />
            <mxPoint x="340" y="384" as="targetPoint" />
            <mxPoint as="offset" />
          </mxGeometry>
        </mxCell>
        <mxCell id="KCTXWF9HBbcBCYYJKOgY-1" value="Prompt For Fetch Fine imposition List" style="html=1;verticalAlign=bottom;endArrow=open;curved=0;rounded=0;dashed=1;endFill=0;" parent="1" edge="1">
          <mxGeometry width="80" relative="1" as="geometry">
            <mxPoint x="337.5" y="165" as="sourcePoint" />
            <mxPoint x="110" y="165" as="targetPoint" />
            <mxPoint as="offset" />
          </mxGeometry>
        </mxCell>
        <mxCell id="KCTXWF9HBbcBCYYJKOgY-2" value="Set Fine Payment" style="html=1;verticalAlign=bottom;endArrow=block;curved=0;rounded=0;" parent="1" edge="1">
          <mxGeometry x="0.0022" width="80" relative="1" as="geometry">
            <mxPoint x="110" y="315" as="sourcePoint" />
            <mxPoint x="340" y="315" as="targetPoint" />
            <mxPoint as="offset" />
          </mxGeometry>
        </mxCell>
        <mxCell id="ik_pqnpgkmPzkwMiJBN7-1" value="Click Fetch Button" style="html=1;verticalAlign=bottom;endArrow=block;curved=0;rounded=0;" parent="1" edge="1">
          <mxGeometry x="0.0022" width="80" relative="1" as="geometry">
            <mxPoint x="110" y="196" as="sourcePoint" />
            <mxPoint x="339.5" y="196" as="targetPoint" />
            <mxPoint as="offset" />
          </mxGeometry>
        </mxCell>
        <mxCell id="xHY1AqmHmInefCjvaA6q-1" value="Display confirmation message" style="html=1;verticalAlign=bottom;endArrow=open;curved=0;rounded=0;dashed=1;endFill=0;" edge="1" parent="1">
          <mxGeometry width="80" relative="1" as="geometry">
            <mxPoint x="338" y="348" as="sourcePoint" />
            <mxPoint x="110" y="348" as="targetPoint" />
            <mxPoint as="offset" />
          </mxGeometry>
        </mxCell>
      </root>
    </mxGraphModel>
  </diagram>
  <diagram id="bpP-AFaYVSEafVQ2N9L8" name="13-ViewReports">
    <mxGraphModel dx="1114" dy="610" grid="1" gridSize="10" guides="1" tooltips="1" connect="1" arrows="1" fold="1" page="1" pageScale="1" pageWidth="850" pageHeight="1100" math="0" shadow="0">
      <root>
        <mxCell id="0" />
        <mxCell id="1" parent="0" />
        <mxCell id="3UG2G_9442lQmMm-B1bi-1" value="&lt;br&gt;&lt;br&gt;&lt;br&gt;&lt;br&gt;User/admin" style="shape=umlLifeline;perimeter=lifelinePerimeter;whiteSpace=wrap;html=1;container=1;dropTarget=0;collapsible=0;recursiveResize=0;outlineConnect=0;portConstraint=eastwest;newEdgeStyle={&quot;curved&quot;:0,&quot;rounded&quot;:0};participant=umlActor;fillColor=#a0522d;fontColor=#000000;strokeColor=#6D1F00;" parent="1" vertex="1">
          <mxGeometry x="100" y="51" width="20" height="349" as="geometry" />
        </mxCell>
        <mxCell id="3UG2G_9442lQmMm-B1bi-2" value="User Interface" style="shape=umlLifeline;perimeter=lifelinePerimeter;whiteSpace=wrap;html=1;container=1;dropTarget=0;collapsible=0;recursiveResize=0;outlineConnect=0;portConstraint=eastwest;newEdgeStyle={&quot;curved&quot;:0,&quot;rounded&quot;:0};verticalAlign=middle;fillColor=#a0522d;fontColor=#ffffff;strokeColor=#6D1F00;" parent="1" vertex="1">
          <mxGeometry x="210" y="51" width="100" height="349" as="geometry" />
        </mxCell>
        <mxCell id="3UG2G_9442lQmMm-B1bi-3" value="" style="html=1;points=[[0,0,0,0,5],[0,1,0,0,-5],[1,0,0,0,5],[1,1,0,0,-5]];perimeter=orthogonalPerimeter;outlineConnect=0;targetShapes=umlLifeline;portConstraint=eastwest;newEdgeStyle={&quot;curved&quot;:0,&quot;rounded&quot;:0};fillColor=#d5e8d4;strokeColor=#82b366;" parent="3UG2G_9442lQmMm-B1bi-2" vertex="1">
          <mxGeometry x="49" y="171" width="10" height="140" as="geometry" />
        </mxCell>
        <mxCell id="OJB3q-PQXe8LEcE5nLN9-1" value="" style="html=1;points=[[0,0,0,0,5],[0,1,0,0,-5],[1,0,0,0,5],[1,1,0,0,-5]];perimeter=orthogonalPerimeter;outlineConnect=0;targetShapes=umlLifeline;portConstraint=eastwest;newEdgeStyle={&quot;curved&quot;:0,&quot;rounded&quot;:0};fillColor=#d5e8d4;strokeColor=#82b366;" vertex="1" parent="3UG2G_9442lQmMm-B1bi-2">
          <mxGeometry x="50" y="95" width="10" height="45" as="geometry" />
        </mxCell>
        <mxCell id="3UG2G_9442lQmMm-B1bi-4" value="Database" style="shape=umlLifeline;perimeter=lifelinePerimeter;whiteSpace=wrap;html=1;container=1;dropTarget=0;collapsible=0;recursiveResize=0;outlineConnect=0;portConstraint=eastwest;newEdgeStyle={&quot;curved&quot;:0,&quot;rounded&quot;:0};verticalAlign=middle;fillColor=#a0522d;fontColor=#ffffff;strokeColor=#6D1F00;" parent="1" vertex="1">
          <mxGeometry x="450" y="51" width="100" height="349" as="geometry" />
        </mxCell>
        <mxCell id="3UG2G_9442lQmMm-B1bi-5" value="" style="html=1;points=[[0,0,0,0,5],[0,1,0,0,-5],[1,0,0,0,5],[1,1,0,0,-5]];perimeter=orthogonalPerimeter;outlineConnect=0;targetShapes=umlLifeline;portConstraint=eastwest;newEdgeStyle={&quot;curved&quot;:0,&quot;rounded&quot;:0};fillColor=#d5e8d4;strokeColor=#82b366;" parent="3UG2G_9442lQmMm-B1bi-4" vertex="1">
          <mxGeometry x="50" y="190" width="10" height="80" as="geometry" />
        </mxCell>
        <mxCell id="3UG2G_9442lQmMm-B1bi-6" value="Requests to view Report" style="html=1;verticalAlign=bottom;endArrow=block;curved=0;rounded=0;" parent="1" target="3UG2G_9442lQmMm-B1bi-2" edge="1">
          <mxGeometry x="0.0033" width="80" relative="1" as="geometry">
            <mxPoint x="110" y="149" as="sourcePoint" />
            <mxPoint x="190" y="149" as="targetPoint" />
            <mxPoint as="offset" />
          </mxGeometry>
        </mxCell>
        <mxCell id="3UG2G_9442lQmMm-B1bi-7" value="Initiates report retrieval" style="html=1;verticalAlign=bottom;endArrow=block;curved=0;rounded=0;" parent="1" edge="1">
          <mxGeometry x="0.0022" width="80" relative="1" as="geometry">
            <mxPoint x="270" y="242" as="sourcePoint" />
            <mxPoint x="499.5" y="242" as="targetPoint" />
            <mxPoint as="offset" />
          </mxGeometry>
        </mxCell>
        <mxCell id="3UG2G_9442lQmMm-B1bi-8" value="Returns report data" style="html=1;verticalAlign=bottom;endArrow=open;curved=0;rounded=0;dashed=1;endFill=0;" parent="1" source="3UG2G_9442lQmMm-B1bi-4" edge="1">
          <mxGeometry x="0.0022" width="80" relative="1" as="geometry">
            <mxPoint x="420" y="320.5" as="sourcePoint" />
            <mxPoint x="270" y="320" as="targetPoint" />
            <mxPoint as="offset" />
          </mxGeometry>
        </mxCell>
        <mxCell id="3UG2G_9442lQmMm-B1bi-9" value="Displays report" style="html=1;verticalAlign=bottom;endArrow=open;curved=0;rounded=0;dashed=1;endFill=0;" parent="1" edge="1">
          <mxGeometry width="80" relative="1" as="geometry">
            <mxPoint x="260" y="361" as="sourcePoint" />
            <mxPoint x="110" y="361" as="targetPoint" />
            <mxPoint as="offset" />
          </mxGeometry>
        </mxCell>
        <mxCell id="ZUT7QVpFXz6w0q01aJvG-1" value="Prompt For Select Report&amp;nbsp;" style="html=1;verticalAlign=bottom;endArrow=open;curved=0;rounded=0;dashed=1;endFill=0;" parent="1" edge="1">
          <mxGeometry width="80" relative="1" as="geometry">
            <mxPoint x="259" y="190" as="sourcePoint" />
            <mxPoint x="109" y="190" as="targetPoint" />
            <mxPoint as="offset" />
          </mxGeometry>
        </mxCell>
        <mxCell id="WJ3O1R_MUdKojgovImYd-1" value="Select Report" style="html=1;verticalAlign=bottom;endArrow=block;curved=0;rounded=0;" parent="1" edge="1">
          <mxGeometry x="0.0033" width="80" relative="1" as="geometry">
            <mxPoint x="110" y="225" as="sourcePoint" />
            <mxPoint x="260" y="225" as="targetPoint" />
            <mxPoint as="offset" />
          </mxGeometry>
        </mxCell>
      </root>
    </mxGraphModel>
  </diagram>
</mxfile>
